<svg width="625" height="229" viewBox="0 0 625 229" fill="none" xmlns="http://www.w3.org/2000/svg">
<path d="M3.30176 76L0 66.2451H1.87305L4.53906 74.4756H4.64844L7.30762 66.2451H9.18066L5.87891 76H3.30176ZM9.83008 72.3154C9.83008 71.5635 9.92806 70.946 10.124 70.4629C10.32 69.9798 10.5798 69.5993 10.9033 69.3213C11.2269 69.0433 11.596 68.8519 12.0107 68.7471C12.4255 68.6377 12.8516 68.583 13.2891 68.583C13.8405 68.583 14.2962 68.6582 14.6562 68.8086C15.0208 68.959 15.3102 69.1709 15.5244 69.4443C15.7386 69.7132 15.889 70.0368 15.9756 70.415C16.0622 70.7933 16.1055 71.2103 16.1055 71.666C16.1055 71.8802 16.0964 72.1012 16.0781 72.3291C16.0645 72.557 16.0439 72.7917 16.0166 73.0332H11.498C11.5026 73.3568 11.5368 73.6302 11.6006 73.8535C11.6689 74.0723 11.7783 74.2523 11.9287 74.3936C12.0837 74.5303 12.2865 74.6305 12.5371 74.6943C12.7923 74.7536 13.109 74.7832 13.4873 74.7832C13.8063 74.7832 14.1048 74.7764 14.3828 74.7627C14.6608 74.7445 14.9046 74.724 15.1143 74.7012C15.3604 74.6784 15.5837 74.6488 15.7842 74.6123V75.7471C15.5518 75.8337 15.2988 75.9111 15.0254 75.9795C14.793 76.0387 14.5218 76.0911 14.2119 76.1367C13.902 76.1868 13.5716 76.2119 13.2207 76.2119C12.6829 76.2119 12.2044 76.1436 11.7852 76.0068C11.3659 75.8747 11.0104 75.6559 10.7188 75.3506C10.4316 75.0407 10.2106 74.6374 10.0557 74.1406C9.90527 73.6439 9.83008 73.0355 9.83008 72.3154ZM14.6084 71.8164V71.5566C14.6084 71.2832 14.5902 71.0462 14.5537 70.8457C14.5218 70.6406 14.4535 70.472 14.3486 70.3398C14.2438 70.2077 14.0957 70.1097 13.9043 70.0459C13.7129 69.9821 13.4577 69.9502 13.1387 69.9502C12.7969 69.9502 12.5166 69.9912 12.2979 70.0732C12.0837 70.1507 11.915 70.2692 11.792 70.4287C11.6735 70.5837 11.5915 70.7773 11.5459 71.0098C11.5049 71.2422 11.4844 71.5111 11.4844 71.8164H14.6084ZM17.7461 68.7881H18.9355L19.1338 69.3213C19.3844 69.1846 19.6579 69.0615 19.9541 68.9521C20.2093 68.861 20.5033 68.7767 20.8359 68.6992C21.1686 68.6217 21.5241 68.583 21.9023 68.583C22.6133 68.583 23.1374 68.7699 23.4746 69.1436C23.8164 69.5127 23.9873 70.0938 23.9873 70.8867V76H22.3672V71.085C22.3672 70.8981 22.3535 70.7386 22.3262 70.6064C22.3034 70.4697 22.251 70.3604 22.1689 70.2783C22.0869 70.1917 21.9684 70.1279 21.8135 70.0869C21.6585 70.0459 21.4512 70.0254 21.1914 70.0254C20.918 70.0254 20.6696 70.0436 20.4463 70.0801C20.223 70.112 20.0316 70.1462 19.8721 70.1826C19.6852 70.2282 19.5166 70.2783 19.3662 70.333V76H17.7461V68.7881ZM26.25 65.377H27.8701V69.1367C28.1117 69.0456 28.3714 68.9613 28.6494 68.8838C28.8864 68.82 29.1576 68.7607 29.4629 68.7061C29.7728 68.6514 30.0918 68.624 30.4199 68.624C30.748 68.624 31.0443 68.6605 31.3086 68.7334C31.5775 68.8018 31.8031 68.9271 31.9854 69.1094C32.1722 69.2871 32.3158 69.5309 32.416 69.8408C32.5163 70.1462 32.5664 70.5381 32.5664 71.0166V76H30.9395V71.2148C30.9395 71.0234 30.9258 70.8571 30.8984 70.7158C30.8711 70.57 30.8118 70.4515 30.7207 70.3604C30.6341 70.2646 30.5065 70.194 30.3379 70.1484C30.1738 70.1029 29.9551 70.0801 29.6816 70.0801C29.4629 70.0801 29.2464 70.0938 29.0322 70.1211C28.8226 70.1484 28.6312 70.1781 28.458 70.21C28.2529 70.2464 28.057 70.2874 27.8701 70.333V76H26.25V65.377ZM34.5557 73.9561C34.5557 73.5459 34.6149 73.1995 34.7334 72.917C34.8564 72.6344 35.0205 72.4066 35.2256 72.2334C35.4352 72.0602 35.679 71.9349 35.957 71.8574C36.2396 71.7799 36.5426 71.7412 36.8662 71.7412C37.1943 71.7412 37.4906 71.7594 37.7549 71.7959C38.0238 71.8324 38.2562 71.8734 38.4521 71.9189C38.6755 71.9691 38.8783 72.026 39.0605 72.0898V71.4199C39.0605 71.2513 39.0537 71.11 39.04 70.9961C39.0309 70.8776 39.0127 70.7751 38.9854 70.6885C38.958 70.6019 38.9193 70.529 38.8691 70.4697C38.8236 70.4105 38.7666 70.3535 38.6982 70.2988C38.5524 70.194 38.3519 70.1188 38.0967 70.0732C37.8415 70.0277 37.5088 70.0049 37.0986 70.0049C36.8389 70.0049 36.5859 70.014 36.3398 70.0322C36.0983 70.0459 35.8818 70.0641 35.6904 70.0869C35.4671 70.1097 35.2552 70.1348 35.0547 70.1621V69.0273C35.237 68.9544 35.4626 68.8883 35.7314 68.8291C35.9593 68.779 36.2441 68.7334 36.5859 68.6924C36.9277 68.6468 37.3333 68.624 37.8027 68.624C38.1172 68.624 38.3952 68.6377 38.6367 68.665C38.8828 68.6878 39.0993 68.7288 39.2861 68.7881C39.473 68.8473 39.637 68.9248 39.7783 69.0205C39.9242 69.1162 40.054 69.2347 40.168 69.376C40.2637 69.4945 40.3434 69.6198 40.4072 69.752C40.471 69.8841 40.5234 70.0391 40.5645 70.2168C40.6055 70.3945 40.6328 70.5996 40.6465 70.832C40.6647 71.0599 40.6738 71.3265 40.6738 71.6318V76H39.2998L39.1768 75.4668C38.9762 75.6081 38.7552 75.7334 38.5137 75.8428C38.304 75.9339 38.0579 76.0182 37.7754 76.0957C37.4974 76.1732 37.1898 76.2119 36.8525 76.2119C36.4424 76.2119 36.0915 76.1709 35.7998 76.0889C35.5081 76.0068 35.2689 75.877 35.082 75.6992C34.8997 75.5215 34.7653 75.2891 34.6787 75.002C34.5967 74.7148 34.5557 74.3662 34.5557 73.9561ZM36.2168 73.9561C36.2168 74.1566 36.2419 74.3161 36.292 74.4346C36.3421 74.5531 36.415 74.6442 36.5107 74.708C36.6064 74.7673 36.7227 74.806 36.8594 74.8242C37.0007 74.8424 37.1602 74.8516 37.3379 74.8516C37.5703 74.8516 37.7891 74.8311 37.9941 74.79C38.2038 74.7445 38.3883 74.6966 38.5479 74.6465C38.7301 74.5872 38.901 74.5189 39.0605 74.4414V73.1904C38.9147 73.1631 38.7575 73.138 38.5889 73.1152C38.443 73.0924 38.2767 73.0742 38.0898 73.0605C37.9076 73.0423 37.7139 73.0332 37.5088 73.0332C37.2809 73.0332 37.085 73.0446 36.9209 73.0674C36.7614 73.0856 36.6292 73.1289 36.5244 73.1973C36.4196 73.2611 36.3421 73.3545 36.292 73.4775C36.2419 73.596 36.2168 73.7555 36.2168 73.9561ZM46.9766 70.1348H45.9648V68.7881H46.9766V67.585C46.9766 67.2158 47.0107 66.8877 47.0791 66.6006C47.152 66.3135 47.2682 66.0719 47.4277 65.876C47.5872 65.68 47.7969 65.5319 48.0566 65.4316C48.321 65.3268 48.6423 65.2744 49.0205 65.2744C49.3031 65.2744 49.5583 65.2881 49.7861 65.3154C50.0186 65.3428 50.2145 65.3747 50.374 65.4111C50.5609 65.4521 50.7295 65.4954 50.8799 65.541V66.7441C50.7568 66.735 50.6247 66.7259 50.4834 66.7168C50.3649 66.7077 50.2282 66.7008 50.0732 66.6963C49.9183 66.6917 49.7588 66.6895 49.5947 66.6895C49.3942 66.6895 49.2301 66.7054 49.1025 66.7373C48.9749 66.7646 48.8724 66.8125 48.7949 66.8809C48.722 66.9447 48.6696 67.029 48.6377 67.1338C48.6104 67.2386 48.5967 67.3662 48.5967 67.5166V68.7881H50.4424V70.1348H48.5967V76H46.9766V70.1348ZM51.5225 73.9561C51.5225 73.5459 51.5817 73.1995 51.7002 72.917C51.8232 72.6344 51.9873 72.4066 52.1924 72.2334C52.402 72.0602 52.6458 71.9349 52.9238 71.8574C53.2064 71.7799 53.5094 71.7412 53.833 71.7412C54.1611 71.7412 54.4574 71.7594 54.7217 71.7959C54.9906 71.8324 55.223 71.8734 55.4189 71.9189C55.6423 71.9691 55.8451 72.026 56.0273 72.0898V71.4199C56.0273 71.2513 56.0205 71.11 56.0068 70.9961C55.9977 70.8776 55.9795 70.7751 55.9521 70.6885C55.9248 70.6019 55.8861 70.529 55.8359 70.4697C55.7904 70.4105 55.7334 70.3535 55.665 70.2988C55.5192 70.194 55.3187 70.1188 55.0635 70.0732C54.8083 70.0277 54.4756 70.0049 54.0654 70.0049C53.8057 70.0049 53.5527 70.014 53.3066 70.0322C53.0651 70.0459 52.8486 70.0641 52.6572 70.0869C52.4339 70.1097 52.222 70.1348 52.0215 70.1621V69.0273C52.2038 68.9544 52.4294 68.8883 52.6982 68.8291C52.9261 68.779 53.2109 68.7334 53.5527 68.6924C53.8945 68.6468 54.3001 68.624 54.7695 68.624C55.084 68.624 55.362 68.6377 55.6035 68.665C55.8496 68.6878 56.0661 68.7288 56.2529 68.7881C56.4398 68.8473 56.6038 68.9248 56.7451 69.0205C56.891 69.1162 57.0208 69.2347 57.1348 69.376C57.2305 69.4945 57.3102 69.6198 57.374 69.752C57.4378 69.8841 57.4902 70.0391 57.5312 70.2168C57.5723 70.3945 57.5996 70.5996 57.6133 70.832C57.6315 71.0599 57.6406 71.3265 57.6406 71.6318V76H56.2666L56.1436 75.4668C55.943 75.6081 55.722 75.7334 55.4805 75.8428C55.2708 75.9339 55.0247 76.0182 54.7422 76.0957C54.4642 76.1732 54.1566 76.2119 53.8193 76.2119C53.4092 76.2119 53.0583 76.1709 52.7666 76.0889C52.4749 76.0068 52.2357 75.877 52.0488 75.6992C51.8665 75.5215 51.7321 75.2891 51.6455 75.002C51.5635 74.7148 51.5225 74.3662 51.5225 73.9561ZM53.1836 73.9561C53.1836 74.1566 53.2087 74.3161 53.2588 74.4346C53.3089 74.5531 53.3818 74.6442 53.4775 74.708C53.5732 74.7673 53.6895 74.806 53.8262 74.8242C53.9674 74.8424 54.127 74.8516 54.3047 74.8516C54.5371 74.8516 54.7559 74.8311 54.9609 74.79C55.1706 74.7445 55.3551 74.6966 55.5146 74.6465C55.6969 74.5872 55.8678 74.5189 56.0273 74.4414V73.1904C55.8815 73.1631 55.7243 73.138 55.5557 73.1152C55.4098 73.0924 55.2435 73.0742 55.0566 73.0605C54.8743 73.0423 54.6807 73.0332 54.4756 73.0332C54.2477 73.0332 54.0518 73.0446 53.8877 73.0674C53.7282 73.0856 53.596 73.1289 53.4912 73.1973C53.3864 73.2611 53.3089 73.3545 53.2588 73.4775C53.2087 73.596 53.1836 73.7555 53.1836 73.9561ZM59.6162 74.9199L63.2666 70.1895V70.1758H59.7529V68.7881H65.5088V69.8135L61.8379 74.5576V74.5713H65.5908V76H59.6162V74.9199ZM66.9238 72.3154C66.9238 71.5635 67.0218 70.946 67.2178 70.4629C67.4137 69.9798 67.6735 69.5993 67.9971 69.3213C68.3206 69.0433 68.6898 68.8519 69.1045 68.7471C69.5192 68.6377 69.9453 68.583 70.3828 68.583C70.9342 68.583 71.39 68.6582 71.75 68.8086C72.1146 68.959 72.404 69.1709 72.6182 69.4443C72.8324 69.7132 72.9827 70.0368 73.0693 70.415C73.1559 70.7933 73.1992 71.2103 73.1992 71.666C73.1992 71.8802 73.1901 72.1012 73.1719 72.3291C73.1582 72.557 73.1377 72.7917 73.1104 73.0332H68.5918C68.5964 73.3568 68.6305 73.6302 68.6943 73.8535C68.7627 74.0723 68.8721 74.2523 69.0225 74.3936C69.1774 74.5303 69.3802 74.6305 69.6309 74.6943C69.8861 74.7536 70.2028 74.7832 70.5811 74.7832C70.9001 74.7832 71.1986 74.7764 71.4766 74.7627C71.7546 74.7445 71.9984 74.724 72.208 74.7012C72.4541 74.6784 72.6774 74.6488 72.8779 74.6123V75.7471C72.6455 75.8337 72.3926 75.9111 72.1191 75.9795C71.8867 76.0387 71.6156 76.0911 71.3057 76.1367C70.9958 76.1868 70.6654 76.2119 70.3145 76.2119C69.7767 76.2119 69.2982 76.1436 68.8789 76.0068C68.4596 75.8747 68.1042 75.6559 67.8125 75.3506C67.5254 75.0407 67.3044 74.6374 67.1494 74.1406C66.999 73.6439 66.9238 73.0355 66.9238 72.3154ZM71.7021 71.8164V71.5566C71.7021 71.2832 71.6839 71.0462 71.6475 70.8457C71.6156 70.6406 71.5472 70.472 71.4424 70.3398C71.3376 70.2077 71.1895 70.1097 70.998 70.0459C70.8066 69.9821 70.5514 69.9502 70.2324 69.9502C69.8906 69.9502 69.6104 69.9912 69.3916 70.0732C69.1774 70.1507 69.0088 70.2692 68.8857 70.4287C68.7673 70.5837 68.6852 70.7773 68.6396 71.0098C68.5986 71.2422 68.5781 71.5111 68.5781 71.8164H71.7021ZM74.8398 68.7881H76.2412L76.3369 69.5742C76.6924 69.3418 77.0911 69.1504 77.5332 69C77.9753 68.8496 78.472 68.7607 79.0234 68.7334L79.0098 70.415C78.4401 70.4242 77.9456 70.4538 77.5264 70.5039C77.1117 70.5495 76.7562 70.6315 76.46 70.75V76H74.8398V68.7881ZM85.5381 79.3154H83.918V68.7881H85.1074L85.3057 69.3213C85.5563 69.1846 85.8298 69.0615 86.126 68.9521C86.3812 68.861 86.6729 68.7767 87.001 68.6992C87.3337 68.6217 87.6914 68.583 88.0742 68.583C88.457 68.583 88.7897 68.6559 89.0723 68.8018C89.3548 68.943 89.5895 69.1686 89.7764 69.4785C89.9678 69.7839 90.109 70.1781 90.2002 70.6611C90.2959 71.1396 90.3438 71.7161 90.3438 72.3906C90.3438 73.1061 90.2868 73.7077 90.1729 74.1953C90.0635 74.6829 89.8971 75.0771 89.6738 75.3779C89.4551 75.6742 89.1839 75.8861 88.8604 76.0137C88.5368 76.1458 88.1631 76.2119 87.7393 76.2119C87.4339 76.2119 87.1468 76.1868 86.8779 76.1367C86.6136 76.0866 86.3812 76.0296 86.1807 75.9658C85.9482 75.8929 85.734 75.8109 85.5381 75.7197V79.3154ZM85.5381 74.5576C85.6702 74.5986 85.8184 74.6328 85.9824 74.6602C86.1237 74.6829 86.29 74.7057 86.4814 74.7285C86.6774 74.7467 86.8962 74.7559 87.1377 74.7559C87.4339 74.7559 87.6777 74.7285 87.8691 74.6738C88.0651 74.6146 88.2178 74.4984 88.3271 74.3252C88.4411 74.152 88.5208 73.9082 88.5664 73.5938C88.612 73.2747 88.6348 72.8577 88.6348 72.3428C88.6348 71.9189 88.6165 71.5612 88.5801 71.2695C88.5482 70.9733 88.4844 70.734 88.3887 70.5518C88.2975 70.3649 88.1676 70.2305 87.999 70.1484C87.835 70.0664 87.623 70.0254 87.3633 70.0254C87.1263 70.0254 86.8984 70.0436 86.6797 70.0801C86.4609 70.112 86.2673 70.1462 86.0986 70.1826C85.8981 70.2282 85.7113 70.2783 85.5381 70.333V74.5576ZM91.9775 73.9561C91.9775 73.5459 92.0368 73.1995 92.1553 72.917C92.2783 72.6344 92.4424 72.4066 92.6475 72.2334C92.8571 72.0602 93.1009 71.9349 93.3789 71.8574C93.6615 71.7799 93.9645 71.7412 94.2881 71.7412C94.6162 71.7412 94.9124 71.7594 95.1768 71.7959C95.4456 71.8324 95.6781 71.8734 95.874 71.9189C96.0973 71.9691 96.3001 72.026 96.4824 72.0898V71.4199C96.4824 71.2513 96.4756 71.11 96.4619 70.9961C96.4528 70.8776 96.4346 70.7751 96.4072 70.6885C96.3799 70.6019 96.3411 70.529 96.291 70.4697C96.2454 70.4105 96.1885 70.3535 96.1201 70.2988C95.9743 70.194 95.7738 70.1188 95.5186 70.0732C95.2633 70.0277 94.9307 70.0049 94.5205 70.0049C94.2607 70.0049 94.0078 70.014 93.7617 70.0322C93.5202 70.0459 93.3037 70.0641 93.1123 70.0869C92.889 70.1097 92.6771 70.1348 92.4766 70.1621V69.0273C92.6589 68.9544 92.8844 68.8883 93.1533 68.8291C93.3812 68.779 93.666 68.7334 94.0078 68.6924C94.3496 68.6468 94.7552 68.624 95.2246 68.624C95.5391 68.624 95.8171 68.6377 96.0586 68.665C96.3047 68.6878 96.5212 68.7288 96.708 68.7881C96.8949 68.8473 97.0589 68.9248 97.2002 69.0205C97.346 69.1162 97.4759 69.2347 97.5898 69.376C97.6855 69.4945 97.7653 69.6198 97.8291 69.752C97.8929 69.8841 97.9453 70.0391 97.9863 70.2168C98.0273 70.3945 98.0547 70.5996 98.0684 70.832C98.0866 71.0599 98.0957 71.3265 98.0957 71.6318V76H96.7217L96.5986 75.4668C96.3981 75.6081 96.1771 75.7334 95.9355 75.8428C95.7259 75.9339 95.4798 76.0182 95.1973 76.0957C94.9193 76.1732 94.6117 76.2119 94.2744 76.2119C93.8643 76.2119 93.5133 76.1709 93.2217 76.0889C92.93 76.0068 92.6908 75.877 92.5039 75.6992C92.3216 75.5215 92.1872 75.2891 92.1006 75.002C92.0186 74.7148 91.9775 74.3662 91.9775 73.9561ZM93.6387 73.9561C93.6387 74.1566 93.6637 74.3161 93.7139 74.4346C93.764 74.5531 93.8369 74.6442 93.9326 74.708C94.0283 74.7673 94.1445 74.806 94.2812 74.8242C94.4225 74.8424 94.582 74.8516 94.7598 74.8516C94.9922 74.8516 95.2109 74.8311 95.416 74.79C95.6257 74.7445 95.8102 74.6966 95.9697 74.6465C96.152 74.5872 96.3229 74.5189 96.4824 74.4414V73.1904C96.3366 73.1631 96.1794 73.138 96.0107 73.1152C95.8649 73.0924 95.6986 73.0742 95.5117 73.0605C95.3294 73.0423 95.1357 73.0332 94.9307 73.0332C94.7028 73.0332 94.5068 73.0446 94.3428 73.0674C94.1833 73.0856 94.0511 73.1289 93.9463 73.1973C93.8415 73.2611 93.764 73.3545 93.7139 73.4775C93.6637 73.596 93.6387 73.7555 93.6387 73.9561ZM100.406 68.7881H101.808L101.903 69.5742C102.259 69.3418 102.658 69.1504 103.1 69C103.542 68.8496 104.038 68.7607 104.59 68.7334L104.576 70.415C104.007 70.4242 103.512 70.4538 103.093 70.5039C102.678 70.5495 102.323 70.6315 102.026 70.75V76H100.406V68.7881ZM106.49 70.1348H105.424V68.7881H106.49V67.2637L108.11 66.9014V68.7881H109.929V70.1348H108.11V74.0107C108.11 74.1794 108.122 74.3184 108.145 74.4277C108.172 74.5371 108.217 74.626 108.281 74.6943C108.35 74.7581 108.443 74.8037 108.562 74.8311C108.685 74.8538 108.842 74.8652 109.033 74.8652C109.211 74.8652 109.37 74.863 109.512 74.8584C109.658 74.8493 109.781 74.8402 109.881 74.8311C109.999 74.8219 110.104 74.8105 110.195 74.7969V75.877C110.036 75.9408 109.865 75.9977 109.683 76.0479C109.523 76.0889 109.336 76.1253 109.122 76.1572C108.908 76.1937 108.673 76.2119 108.418 76.2119C108.062 76.2119 107.762 76.1777 107.516 76.1094C107.274 76.041 107.076 75.9385 106.921 75.8018C106.771 75.6605 106.661 75.485 106.593 75.2754C106.524 75.0612 106.49 74.8128 106.49 74.5303V70.1348ZM111.398 72.3154C111.398 71.5635 111.496 70.946 111.692 70.4629C111.888 69.9798 112.148 69.5993 112.472 69.3213C112.795 69.0433 113.164 68.8519 113.579 68.7471C113.994 68.6377 114.42 68.583 114.857 68.583C115.409 68.583 115.865 68.6582 116.225 68.8086C116.589 68.959 116.879 69.1709 117.093 69.4443C117.307 69.7132 117.457 70.0368 117.544 70.415C117.631 70.7933 117.674 71.2103 117.674 71.666C117.674 71.8802 117.665 72.1012 117.646 72.3291C117.633 72.557 117.612 72.7917 117.585 73.0332H113.066C113.071 73.3568 113.105 73.6302 113.169 73.8535C113.237 74.0723 113.347 74.2523 113.497 74.3936C113.652 74.5303 113.855 74.6305 114.105 74.6943C114.361 74.7536 114.677 74.7832 115.056 74.7832C115.375 74.7832 115.673 74.7764 115.951 74.7627C116.229 74.7445 116.473 74.724 116.683 74.7012C116.929 74.6784 117.152 74.6488 117.353 74.6123V75.7471C117.12 75.8337 116.867 75.9111 116.594 75.9795C116.361 76.0387 116.09 76.0911 115.78 76.1367C115.47 76.1868 115.14 76.2119 114.789 76.2119C114.251 76.2119 113.773 76.1436 113.354 76.0068C112.934 75.8747 112.579 75.6559 112.287 75.3506C112 75.0407 111.779 74.6374 111.624 74.1406C111.474 73.6439 111.398 73.0355 111.398 72.3154ZM116.177 71.8164V71.5566C116.177 71.2832 116.159 71.0462 116.122 70.8457C116.09 70.6406 116.022 70.472 115.917 70.3398C115.812 70.2077 115.664 70.1097 115.473 70.0459C115.281 69.9821 115.026 69.9502 114.707 69.9502C114.365 69.9502 114.085 69.9912 113.866 70.0732C113.652 70.1507 113.483 70.2692 113.36 70.4287C113.242 70.5837 113.16 70.7773 113.114 71.0098C113.073 71.2422 113.053 71.5111 113.053 71.8164H116.177ZM124.879 76.2119C124.473 76.2119 124.116 76.1458 123.806 76.0137C123.5 75.8815 123.245 75.6673 123.04 75.3711C122.835 75.0703 122.678 74.6784 122.568 74.1953C122.464 73.7122 122.409 73.1221 122.404 72.4248C122.395 71.7321 122.445 71.1419 122.555 70.6543C122.669 70.1667 122.83 69.7702 123.04 69.4648C123.254 69.1549 123.514 68.9316 123.819 68.7949C124.129 68.6536 124.478 68.583 124.865 68.583C125.221 68.583 125.544 68.6104 125.836 68.665C126.128 68.7197 126.381 68.779 126.595 68.8428C126.845 68.9202 127.066 69.0046 127.258 69.0957V65.377H128.885V76H127.483L127.388 75.4258C127.183 75.5716 126.95 75.7038 126.69 75.8223C126.467 75.9225 126.201 76.0114 125.891 76.0889C125.585 76.1709 125.248 76.2119 124.879 76.2119ZM125.453 74.7559C125.69 74.7559 125.916 74.7399 126.13 74.708C126.349 74.6715 126.542 74.6305 126.711 74.585C126.907 74.5348 127.089 74.4756 127.258 74.4072V70.2852C127.071 70.2396 126.873 70.1963 126.663 70.1553C126.485 70.1234 126.28 70.0938 126.048 70.0664C125.82 70.0391 125.585 70.0254 125.344 70.0254C125.093 70.0254 124.888 70.0687 124.729 70.1553C124.569 70.2373 124.444 70.3763 124.353 70.5723C124.261 70.7682 124.198 71.0257 124.161 71.3447C124.129 71.6637 124.113 72.0579 124.113 72.5273C124.113 72.9329 124.129 73.277 124.161 73.5596C124.193 73.8421 124.257 74.0723 124.353 74.25C124.448 74.4277 124.583 74.5576 124.756 74.6396C124.934 74.7171 125.166 74.7559 125.453 74.7559ZM130.874 73.9561C130.874 73.5459 130.933 73.1995 131.052 72.917C131.175 72.6344 131.339 72.4066 131.544 72.2334C131.754 72.0602 131.997 71.9349 132.275 71.8574C132.558 71.7799 132.861 71.7412 133.185 71.7412C133.513 71.7412 133.809 71.7594 134.073 71.7959C134.342 71.8324 134.575 71.8734 134.771 71.9189C134.994 71.9691 135.197 72.026 135.379 72.0898V71.4199C135.379 71.2513 135.372 71.11 135.358 70.9961C135.349 70.8776 135.331 70.7751 135.304 70.6885C135.276 70.6019 135.238 70.529 135.188 70.4697C135.142 70.4105 135.085 70.3535 135.017 70.2988C134.871 70.194 134.67 70.1188 134.415 70.0732C134.16 70.0277 133.827 70.0049 133.417 70.0049C133.157 70.0049 132.904 70.014 132.658 70.0322C132.417 70.0459 132.2 70.0641 132.009 70.0869C131.785 70.1097 131.574 70.1348 131.373 70.1621V69.0273C131.555 68.9544 131.781 68.8883 132.05 68.8291C132.278 68.779 132.562 68.7334 132.904 68.6924C133.246 68.6468 133.652 68.624 134.121 68.624C134.436 68.624 134.714 68.6377 134.955 68.665C135.201 68.6878 135.418 68.7288 135.604 68.7881C135.791 68.8473 135.955 68.9248 136.097 69.0205C136.243 69.1162 136.372 69.2347 136.486 69.376C136.582 69.4945 136.662 69.6198 136.726 69.752C136.789 69.8841 136.842 70.0391 136.883 70.2168C136.924 70.3945 136.951 70.5996 136.965 70.832C136.983 71.0599 136.992 71.3265 136.992 71.6318V76H135.618L135.495 75.4668C135.295 75.6081 135.074 75.7334 134.832 75.8428C134.622 75.9339 134.376 76.0182 134.094 76.0957C133.816 76.1732 133.508 76.2119 133.171 76.2119C132.761 76.2119 132.41 76.1709 132.118 76.0889C131.826 76.0068 131.587 75.877 131.4 75.6992C131.218 75.5215 131.084 75.2891 130.997 75.002C130.915 74.7148 130.874 74.3662 130.874 73.9561ZM132.535 73.9561C132.535 74.1566 132.56 74.3161 132.61 74.4346C132.66 74.5531 132.733 74.6442 132.829 74.708C132.925 74.7673 133.041 74.806 133.178 74.8242C133.319 74.8424 133.479 74.8516 133.656 74.8516C133.889 74.8516 134.107 74.8311 134.312 74.79C134.522 74.7445 134.707 74.6966 134.866 74.6465C135.049 74.5872 135.219 74.5189 135.379 74.4414V73.1904C135.233 73.1631 135.076 73.138 134.907 73.1152C134.761 73.0924 134.595 73.0742 134.408 73.0605C134.226 73.0423 134.032 73.0332 133.827 73.0332C133.599 73.0332 133.403 73.0446 133.239 73.0674C133.08 73.0856 132.948 73.1289 132.843 73.1973C132.738 73.2611 132.66 73.3545 132.61 73.4775C132.56 73.596 132.535 73.7555 132.535 73.9561Z" fill="black"/>
<rect x="324" y="21" width="251" height="162" fill="#F2656E"/>
<path d="M426 79V128.561L473 103.781L426 79Z" fill="#B54345"/>
<path fill-rule="evenodd" clip-rule="evenodd" d="M20.3728 128.351C19.9995 128.544 19.6123 128.754 19.2165 128.978C18.8109 129.206 18.4335 129.428 18.085 129.638C17.744 129.844 17.3932 130.068 17.0349 130.302C16.6973 130.523 16.3604 130.754 16.0188 130.994L15.5128 131.351L15.9565 131.784C20.2153 135.955 24.4574 140.145 28.6972 144.336L32.2053 147.809C33.2987 148.894 34.4117 150.001 35.5542 151.141L36.4416 152.021L36.4758 152.054C37.3799 152.948 38.3004 153.857 39.1425 154.787C39.1733 154.82 39.2041 154.854 39.2351 154.889C39.288 154.948 39.3415 155.008 39.3964 155.062C39.7224 155.408 40.1206 155.797 40.5562 156.148C41.0091 156.515 41.5002 156.835 41.9987 157.021C42.3628 157.157 42.7228 157.222 43.0788 157.184C43.4579 157.145 43.8145 156.996 44.1405 156.707L44.1786 156.675C44.6217 156.271 44.7163 155.687 44.6315 155.077C44.5254 154.324 44.1307 153.511 43.8543 153.063L43.7914 152.98L20.7346 128.163L20.3728 128.351ZM26.7827 125.728C26.392 125.847 25.9905 125.979 25.5773 126.121C25.1757 126.258 24.7776 126.403 24.387 126.552C24.0494 126.68 23.7044 126.818 23.3518 126.963C23.0108 127.104 22.6733 127.25 22.3421 127.398L21.6272 127.72L22.2019 128.25C25.6329 131.435 29.0297 134.602 32.4233 137.765C32.7695 138.088 33.1158 138.411 33.462 138.734C36.6465 141.704 39.8303 144.675 43.0125 147.65L43.9755 148.544C44.8208 149.327 45.6684 150.118 46.5777 151.009C46.5867 151.014 46.6033 151.031 46.6132 151.042L46.6158 151.044C46.9511 151.366 47.4196 151.684 47.9141 151.825C48.4905 151.989 49.0929 151.931 49.5989 151.437C49.6087 151.427 49.6295 151.403 49.6387 151.398C50.143 150.903 50.2019 150.311 50.0334 149.744C49.8891 149.257 49.5631 148.799 49.2371 148.468L49.2031 148.433C48.6365 147.876 48.1206 147.344 47.6071 146.814L47.0838 146.275C45.6759 144.83 44.2715 143.382 42.8665 141.933C40.4731 139.465 38.0826 136.991 35.695 134.517C32.9064 131.63 30.1183 128.745 27.3251 125.866L27.0971 125.631L26.7827 125.728ZM35.234 124.13C34.6922 124.171 34.1521 124.223 33.6195 124.287C33.0979 124.349 32.5619 124.424 32.012 124.519C31.54 124.595 31.0946 124.675 30.6739 124.757C30.2285 124.844 29.7848 124.939 29.3474 125.041L28.3729 125.268L29.1103 125.931C31.4056 127.997 33.6438 130.099 35.8785 132.201C36.9626 133.222 38.0486 134.242 39.0837 135.205C41.0247 137.011 43.0032 138.849 45.0066 140.614C47.0272 142.395 49.0969 144.125 51.2272 145.723L51.2728 145.752C51.7257 146.024 52.5635 146.422 53.3384 146.53C53.9604 146.615 54.5576 146.522 54.9742 146.079L55.0065 146.044C55.2985 145.723 55.4502 145.374 55.49 145.006C55.5299 144.656 55.4652 144.303 55.325 143.942C55.1375 143.455 54.8092 142.971 54.4382 142.527C54.0799 142.097 53.6852 141.708 53.335 141.39C53.2834 141.339 53.2263 141.29 53.1695 141.241C53.1304 141.207 53.0915 141.173 53.0545 141.139C52.4344 140.597 51.8351 140.019 51.2449 139.449L51.2231 139.428L48.5568 136.859L46.396 134.763C43.9374 132.378 42.0079 130.493 40.09 128.618L35.4728 124.113L35.234 124.13ZM74.5385 169.056C75.4784 166.271 76.0923 163.429 76.2931 160.557C76.4789 157.876 76.3029 155.168 75.6867 152.46C74.9077 149.041 73.4976 145.878 71.661 142.962C69.8261 140.051 67.573 137.389 65.0994 134.962C63.4313 133.325 61.6178 131.846 59.6785 130.54C57.7513 129.244 55.7001 128.12 53.5508 127.19C51.5797 126.338 49.5383 125.652 47.4519 125.14C45.3608 124.627 43.2248 124.288 41.0697 124.128L39.3907 124L40.6929 125.049L54.6142 136.247C57.0993 138.057 61.0638 141.388 63.778 144.956C65.5806 147.324 66.8205 149.781 66.6613 151.913L66.5078 153.808C66.2764 156.548 66.1097 158.567 66.5528 160.451C67.0023 162.357 68.0634 164.063 70.2814 166.122L74.2765 169.832L74.5385 169.056ZM10.4998 165.118C10.1057 163.801 9.53506 162.521 8.85478 161.297C8.17796 160.08 7.39671 158.922 6.57622 157.833C5.82785 156.848 5.02006 155.89 4.17302 154.961C3.32599 154.033 2.44434 153.144 1.54249 152.294L0.858172 151.649L0.655069 152.558C-0.129648 156.089 -0.176962 159.576 0.340605 163.003C0.855864 166.418 1.93254 169.77 3.39581 173.038C5.01429 176.651 7.08051 180.135 9.37754 183.47C11.6711 186.799 14.1937 189.98 16.7314 192.995C18.4866 195.079 20.3157 197.153 22.1805 199.219C24.0194 201.256 25.8918 203.286 27.7647 205.313L28.4675 206.074L28.522 206.133C31.6619 209.532 34.8154 212.947 37.7739 216.506L38.1853 217L38.5967 216.506C41.5605 212.941 44.7205 209.519 47.8647 206.115L47.8783 206.1L48.5966 205.322L48.6907 205.22C50.5318 203.225 52.3744 201.228 54.182 199.223C56.0491 197.155 57.88 195.079 59.6352 192.994C60.634 191.805 61.6328 190.588 62.6258 189.334C63.5945 188.111 64.5495 186.857 65.4877 185.57C66.3578 184.376 67.2031 183.165 68.0109 181.937C68.8239 180.704 69.6011 179.448 70.3345 178.172L70.526 177.839L67.1483 174.325L64.6049 171.689C62.5063 169.513 60.7684 168.474 58.8257 168.032C56.9037 167.598 54.849 167.761 52.0552 167.988L50.124 168.138C47.9521 168.295 45.448 167.078 43.0338 165.309C39.3964 162.646 35.9996 158.752 34.1613 156.318L34.148 156.303C29.4102 150.49 24.703 144.898 19.9985 139.31L19.7548 139.02C17.7873 136.684 15.8013 134.324 14.5105 132.785L14.1689 132.38L13.7598 132.717C13.5458 132.892 13.3542 133.051 13.1875 133.196C13.0149 133.343 12.8274 133.507 12.6243 133.687C12.3722 133.913 12.1431 134.123 11.9342 134.316C11.6878 134.547 11.4628 134.761 11.2637 134.958C10.5321 135.678 9.81375 136.422 9.11789 137.192C8.42261 137.96 7.75329 138.749 7.11629 139.556C6.56468 140.258 6.03442 140.977 5.52839 141.714C5.03737 142.428 4.56884 143.163 4.12398 143.922L3.93588 144.24L4.17879 144.519C5.36337 145.877 6.61603 147.209 7.93505 148.472C9.25983 149.739 10.6492 150.936 12.105 152.017C13.2365 152.86 14.4534 153.663 15.7309 154.355C17.0141 155.051 18.3597 155.635 19.7491 156.035L19.9441 156.054C21.5401 155.912 23.1799 156.041 24.7943 156.355C26.6234 156.712 28.4127 157.313 30.0675 158.042C31.8966 158.848 33.657 159.848 35.3176 160.992C37.0596 162.194 38.6931 163.556 40.1869 165.021C42.2791 167.074 44.2144 169.457 45.763 172.039C47.1692 174.385 48.2626 176.898 48.873 179.478C49.4021 181.706 49.5706 184.1 49.1102 186.316C48.7236 188.172 47.8933 189.907 46.4525 191.321C45.0141 192.735 43.2438 193.551 41.3524 193.929C39.0952 194.381 36.6557 194.216 34.3852 193.699C31.7564 193.101 29.1974 192.028 26.8075 190.646C24.1764 189.127 21.7484 187.227 19.6562 185.173C18.1629 183.706 16.7735 182.104 15.5508 180.395C14.3853 178.766 13.3658 177.04 12.5447 175.244C11.8021 173.622 11.1893 171.864 10.8258 170.068C10.5033 168.484 10.3746 166.876 10.5188 165.309L10.4998 165.118Z" fill="#F89069" fill-opacity="0.1"/>
<path d="M14.992 136H5.072V95.872H14.992V111.168H29.072V95.872H38.992V136H29.072V120.128H14.992V136ZM52.3025 136H41.8705L56.7185 95.872H67.0225L81.4865 136H71.1185L69.0065 129.28H54.4145L52.3025 136ZM61.6465 105.728C61.3052 106.923 60.9212 108.203 60.4945 109.568C60.1105 110.891 59.4492 113.067 58.5105 116.096L56.8465 121.408H66.5105L64.8465 116.096C64.2918 114.475 63.7372 112.768 63.1825 110.976C62.6278 109.141 62.1158 107.392 61.6465 105.728ZM94.4295 124.736V136H84.5095V95.872H99.1655C105.352 95.872 109.747 96.96 112.35 99.136C114.952 101.269 116.254 104.875 116.254 109.952C116.254 114.987 114.867 118.72 112.094 121.152C109.363 123.541 105.118 124.736 99.3575 124.736H94.4295ZM106.206 109.952C106.206 108.075 105.694 106.752 104.67 105.984C103.646 105.216 101.811 104.832 99.1655 104.832H94.4295V116.032H99.1655C101.854 116.032 103.688 115.584 104.67 114.688C105.694 113.792 106.206 112.213 106.206 109.952ZM134.401 136H120.385V95.872H134.401C138.497 95.872 141.739 96.2133 144.129 96.896C146.561 97.5787 148.502 98.6667 149.953 100.16C151.403 101.653 152.449 103.68 153.089 106.24C153.771 108.757 154.113 111.979 154.113 115.904C154.113 122.859 152.555 127.957 149.441 131.2C146.326 134.4 141.313 136 134.401 136ZM142.273 107.392C141.675 106.496 140.801 105.856 139.649 105.472C138.497 105.045 136.747 104.832 134.401 104.832H130.305V126.72H134.401C136.705 126.72 138.433 126.528 139.585 126.144C140.737 125.76 141.633 125.141 142.273 124.288C142.827 123.477 143.233 122.411 143.489 121.088C143.745 119.723 143.873 117.995 143.873 115.904C143.873 113.771 143.745 112.043 143.489 110.72C143.233 109.355 142.827 108.245 142.273 107.392ZM168.805 95.872V136H158.885V95.872H168.805ZM209.571 95.872V136H200.099L184.227 112.832V136H174.947V95.872H184.355L200.291 119.936V95.872H209.571ZM243.345 126.72V136H215.697V95.872H242.769V104.832H225.617V111.488H240.401V119.808H225.617V126.72H243.345Z" fill="#F35357"/>
<path fill-rule="evenodd" clip-rule="evenodd" d="M132.373 4.35064C131.999 4.54431 131.612 4.75439 131.217 4.9775C130.811 5.20627 130.434 5.42768 130.085 5.63777C129.744 5.84446 129.393 6.06757 129.035 6.302C128.697 6.52341 128.36 6.75389 128.019 6.99398L127.513 7.3513L127.956 7.78449C132.215 11.9551 136.457 16.1454 140.697 20.3364L144.205 23.8093C145.299 24.8937 146.412 26.0008 147.554 27.1407L148.442 28.0207L148.476 28.0544C149.38 28.9479 150.3 29.8575 151.143 30.7869C151.173 30.8198 151.204 30.8543 151.235 30.889C151.288 30.9482 151.342 31.0082 151.396 31.0621C151.722 31.4081 152.121 31.7965 152.556 32.1482C153.009 32.5146 153.5 32.8345 153.999 33.0208C154.363 33.1567 154.723 33.2218 155.079 33.1845C155.458 33.1454 155.814 32.9965 156.14 32.7065L156.179 32.6748C156.622 32.2711 156.716 31.6873 156.632 31.0768C156.525 30.3237 156.131 29.5105 155.854 29.0626L155.791 28.9805L132.735 4.16264L132.373 4.35064ZM138.783 1.72769C138.392 1.84717 137.99 1.97911 137.577 2.12068C137.176 2.25828 136.778 2.40324 136.387 2.55217C136.049 2.68015 135.704 2.81775 135.352 2.96328C135.011 3.10428 134.673 3.24982 134.342 3.39818L133.627 3.72038L134.202 4.25041C137.633 7.43519 141.03 10.6018 144.423 13.7654C144.77 14.0882 145.116 14.411 145.462 14.7337C148.646 17.7044 151.83 20.675 155.012 23.6496L155.975 24.5443C156.821 25.3275 157.668 26.118 158.578 27.0087C158.587 27.0139 158.603 27.0313 158.613 27.0417L158.616 27.0444C158.951 27.3661 159.42 27.6843 159.914 27.8253C160.49 27.989 161.093 27.9312 161.599 27.4368C161.609 27.4272 161.629 27.4029 161.639 27.3978C162.143 26.9029 162.202 26.3111 162.033 25.7437C161.889 25.2567 161.563 24.7992 161.237 24.4679L161.203 24.4328C160.636 23.8761 160.121 23.3444 159.607 22.8144L159.084 22.2747C157.676 20.8296 156.271 19.3822 154.866 17.9332C152.473 15.4648 150.083 12.9908 147.695 10.5167C144.906 7.6299 142.118 4.74533 139.325 1.86585L139.097 1.63142L138.783 1.72769ZM147.234 0.130242C146.692 0.171013 146.152 0.22311 145.62 0.286532C145.098 0.349388 144.562 0.424135 144.012 0.518702C143.54 0.595148 143.095 0.674992 142.674 0.757101C142.229 0.844307 141.785 0.93944 141.347 1.04137L140.373 1.26844L141.11 1.93098C143.406 3.99729 145.644 6.09928 147.878 8.20127C148.963 9.22225 150.049 10.2415 151.084 11.2053C153.025 13.0112 155.003 14.8493 157.007 16.6143C159.027 18.3947 161.097 20.1246 163.227 21.7226L163.273 21.7521C163.726 22.0239 164.564 22.422 165.338 22.5296C165.96 22.6151 166.558 22.5222 166.974 22.0794L167.007 22.0443C167.298 21.7226 167.45 21.3744 167.49 21.0063C167.53 20.6563 167.465 20.303 167.325 19.9423C167.137 19.4547 166.809 18.9711 166.438 18.5266C166.08 18.0968 165.685 17.7084 165.335 17.3901C165.283 17.3395 165.226 17.29 165.17 17.2408C165.13 17.2069 165.091 17.1732 165.055 17.1393C164.434 16.5972 163.835 16.0187 163.245 15.449L163.223 15.428L160.557 12.8588L158.396 10.7625C155.937 8.37794 154.008 6.4934 152.09 4.61849L147.473 0.113254L147.234 0.130242ZM186.538 45.0557C187.478 42.2708 188.092 39.4287 188.293 36.5566C188.479 33.8764 188.303 31.168 187.687 28.4595C186.908 25.041 185.498 21.8784 183.661 18.9621C181.826 16.0509 179.573 13.3889 177.099 10.9618C175.431 9.32474 173.618 7.84565 171.678 6.53984C169.751 5.24365 167.7 4.12017 165.551 3.18979C163.58 2.33812 161.538 1.65181 159.452 1.1399C157.361 0.626859 155.225 0.288231 153.07 0.127977L151.391 0L152.693 1.0493L166.614 12.2467C169.099 14.0571 173.064 17.3884 175.778 20.9559C177.581 23.324 178.821 25.7811 178.661 27.9131L178.508 29.8084C178.276 32.548 178.11 34.5667 178.553 36.4507C179.002 38.3573 180.063 40.0629 182.281 42.1225L186.277 45.8315L186.538 45.0557ZM122.5 41.1179C122.106 39.8008 121.535 38.521 120.855 37.2973C120.178 36.0804 119.397 34.9218 118.576 33.8334C117.828 32.8475 117.02 31.89 116.173 30.9613C115.326 30.0332 114.444 29.1441 113.542 28.2942L112.858 27.6486L112.655 28.5581C111.87 32.0887 111.823 35.5764 112.341 39.0029C112.856 42.418 113.933 45.7698 115.396 49.0383C117.014 52.6505 119.081 56.1348 121.378 59.4695C123.671 62.7992 126.194 65.9799 128.731 68.9953C130.487 71.0786 132.316 73.1528 134.181 75.2191C136.019 77.256 137.892 79.2855 139.765 81.3128L140.468 82.0738L140.522 82.1329C143.662 85.5325 146.815 88.9468 149.774 92.5056L150.185 93L150.597 92.5056C153.56 88.941 156.72 85.5193 159.865 82.1146L159.878 82.0999L160.597 81.3224L160.691 81.2205C162.532 79.2249 164.374 77.2276 166.182 75.2231C168.049 73.1545 169.88 71.0786 171.635 68.9936C172.634 67.805 173.633 66.5881 174.626 65.3344C175.595 64.1107 176.549 62.8569 177.488 61.5698C178.358 60.3756 179.203 59.1649 180.011 57.9372C180.824 56.7039 181.601 55.4479 182.334 54.1721L182.526 53.8391L179.148 50.3254L176.605 47.6894C174.506 45.5133 172.768 44.4736 170.826 44.0325C168.904 43.5976 166.849 43.7612 164.055 43.9877L162.124 44.1384C159.952 44.2947 157.448 43.0783 155.034 41.3093C151.396 38.6456 148 34.7525 146.161 32.3175L146.148 32.3028C141.41 26.4896 136.703 20.8981 131.999 15.3098L131.755 15.0203C129.787 12.6839 127.801 10.3236 126.511 8.7851L126.169 8.37965L125.76 8.71658C125.546 8.89155 125.354 9.05124 125.187 9.19621C125.015 9.34344 124.827 9.50709 124.624 9.68716C124.372 9.91254 124.143 10.1226 123.934 10.3163C123.688 10.5468 123.463 10.7608 123.264 10.9579C122.532 11.6776 121.814 12.4217 121.118 13.1918C120.423 13.9602 119.753 14.749 119.116 15.556C118.565 16.2576 118.034 16.9773 117.528 17.714C117.037 18.4281 116.569 19.1631 116.124 19.9219L115.936 20.2396L116.179 20.5187C117.363 21.8767 118.616 23.2085 119.935 24.4719C121.26 25.7386 122.649 26.9363 124.105 28.0167C125.237 28.8599 126.453 29.6634 127.731 30.3554C129.014 31.0508 130.36 31.6352 131.749 32.035L131.944 32.0536C133.54 31.9121 135.18 32.0406 136.794 32.3549C138.623 32.7122 140.413 33.313 142.068 34.0418C143.897 34.8476 145.657 35.8482 147.318 36.9921C149.06 38.1937 150.693 39.5556 152.187 41.0211C154.279 43.0744 156.214 45.4572 157.763 48.0394C159.169 50.3849 160.263 52.898 160.873 55.4779C161.402 57.7062 161.571 60.1003 161.11 62.3156C160.724 64.1718 159.893 65.9074 158.453 67.3214C157.014 68.7348 155.244 69.5514 153.352 69.9291C151.095 70.381 148.656 70.2156 146.385 69.6986C143.756 69.1012 141.197 68.0281 138.807 66.6458C136.176 65.1265 133.748 63.2273 131.656 61.1734C130.163 59.7057 128.773 58.1042 127.551 56.3947C126.385 54.7655 125.366 53.0395 124.545 51.2445C123.802 49.6221 123.189 47.8644 122.826 46.0676C122.503 44.4844 122.375 42.8756 122.519 41.3093L122.5 41.1179Z" fill="#F89069" fill-opacity="0.1"/>
<path fill-rule="evenodd" clip-rule="evenodd" d="M239.373 140.351C238.999 140.544 238.612 140.754 238.217 140.978C237.811 141.206 237.434 141.428 237.085 141.638C236.744 141.844 236.393 142.068 236.035 142.302C235.697 142.523 235.36 142.754 235.019 142.994L234.513 143.351L234.956 143.784C239.215 147.955 243.457 152.145 247.697 156.336L251.205 159.809C252.299 160.894 253.412 162.001 254.554 163.141L255.442 164.021L255.476 164.054C256.38 164.948 257.3 165.857 258.143 166.787C258.173 166.82 258.204 166.854 258.235 166.889C258.288 166.948 258.342 167.008 258.396 167.062C258.722 167.408 259.121 167.797 259.556 168.148C260.009 168.515 260.5 168.835 260.999 169.021C261.363 169.157 261.723 169.222 262.079 169.184C262.458 169.145 262.814 168.996 263.14 168.707L263.179 168.675C263.622 168.271 263.716 167.687 263.632 167.077C263.525 166.324 263.131 165.511 262.854 165.063L262.791 164.98L239.735 140.163L239.373 140.351ZM245.783 137.728C245.392 137.847 244.99 137.979 244.577 138.121C244.176 138.258 243.778 138.403 243.387 138.552C243.049 138.68 242.704 138.818 242.352 138.963C242.011 139.104 241.673 139.25 241.342 139.398L240.627 139.72L241.202 140.25C244.633 143.435 248.03 146.602 251.423 149.765C251.77 150.088 252.116 150.411 252.462 150.734C255.646 153.704 258.83 156.675 262.012 159.65L262.975 160.544C263.821 161.327 264.668 162.118 265.578 163.009C265.587 163.014 265.603 163.031 265.613 163.042L265.616 163.044C265.951 163.366 266.42 163.684 266.914 163.825C267.49 163.989 268.093 163.931 268.599 163.437C268.609 163.427 268.629 163.403 268.639 163.398C269.143 162.903 269.202 162.311 269.033 161.744C268.889 161.257 268.563 160.799 268.237 160.468L268.203 160.433C267.636 159.876 267.121 159.344 266.607 158.814L266.084 158.275C264.676 156.83 263.271 155.382 261.866 153.933C259.473 151.465 257.083 148.991 254.695 146.517C251.906 143.63 249.118 140.745 246.325 137.866L246.097 137.631L245.783 137.728ZM254.234 136.13C253.692 136.171 253.152 136.223 252.62 136.287C252.098 136.349 251.562 136.424 251.012 136.519C250.54 136.595 250.095 136.675 249.674 136.757C249.229 136.844 248.785 136.939 248.347 137.041L247.373 137.268L248.11 137.931C250.406 139.997 252.644 142.099 254.878 144.201C255.963 145.222 257.049 146.242 258.084 147.205C260.025 149.011 262.003 150.849 264.007 152.614C266.027 154.395 268.097 156.125 270.227 157.723L270.273 157.752C270.726 158.024 271.564 158.422 272.338 158.53C272.96 158.615 273.558 158.522 273.974 158.079L274.007 158.044C274.298 157.723 274.45 157.374 274.49 157.006C274.53 156.656 274.465 156.303 274.325 155.942C274.137 155.455 273.809 154.971 273.438 154.527C273.08 154.097 272.685 153.708 272.335 153.39C272.283 153.339 272.226 153.29 272.17 153.241C272.13 153.207 272.091 153.173 272.055 153.139C271.434 152.597 270.835 152.019 270.245 151.449L270.223 151.428L267.557 148.859L265.396 146.763C262.937 144.378 261.008 142.493 259.09 140.618L254.473 136.113L254.234 136.13ZM293.538 181.056C294.478 178.271 295.092 175.429 295.293 172.557C295.479 169.876 295.303 167.168 294.687 164.46C293.908 161.041 292.498 157.878 290.661 154.962C288.826 152.051 286.573 149.389 284.099 146.962C282.431 145.325 280.618 143.846 278.678 142.54C276.751 141.244 274.7 140.12 272.551 139.19C270.58 138.338 268.538 137.652 266.452 137.14C264.361 136.627 262.225 136.288 260.07 136.128L258.391 136L259.693 137.049L273.614 148.247C276.099 150.057 280.064 153.388 282.778 156.956C284.581 159.324 285.821 161.781 285.661 163.913L285.508 165.808C285.276 168.548 285.11 170.567 285.553 172.451C286.002 174.357 287.063 176.063 289.281 178.122L293.277 181.832L293.538 181.056ZM229.5 177.118C229.106 175.801 228.535 174.521 227.855 173.297C227.178 172.08 226.397 170.922 225.576 169.833C224.828 168.848 224.02 167.89 223.173 166.961C222.326 166.033 221.444 165.144 220.542 164.294L219.858 163.649L219.655 164.558C218.87 168.089 218.823 171.576 219.341 175.003C219.856 178.418 220.933 181.77 222.396 185.038C224.014 188.651 226.081 192.135 228.378 195.47C230.671 198.799 233.194 201.98 235.731 204.995C237.487 207.079 239.316 209.153 241.181 211.219C243.019 213.256 244.892 215.286 246.765 217.313L247.468 218.074L247.522 218.133C250.662 221.532 253.815 224.947 256.774 228.506L257.185 229L257.597 228.506C260.56 224.941 263.72 221.519 266.865 218.115L266.878 218.1L267.597 217.322L267.691 217.22C269.532 215.225 271.374 213.228 273.182 211.223C275.049 209.155 276.88 207.079 278.635 204.994C279.634 203.805 280.633 202.588 281.626 201.334C282.595 200.111 283.549 198.857 284.488 197.57C285.358 196.376 286.203 195.165 287.011 193.937C287.824 192.704 288.601 191.448 289.334 190.172L289.526 189.839L286.148 186.325L283.605 183.689C281.506 181.513 279.768 180.474 277.826 180.032C275.904 179.598 273.849 179.761 271.055 179.988L269.124 180.138C266.952 180.295 264.448 179.078 262.034 177.309C258.396 174.646 255 170.752 253.161 168.318L253.148 168.303C248.41 162.49 243.703 156.898 238.999 151.31L238.755 151.02C236.787 148.684 234.801 146.324 233.511 144.785L233.169 144.38L232.76 144.717C232.546 144.892 232.354 145.051 232.187 145.196C232.015 145.343 231.827 145.507 231.624 145.687C231.372 145.913 231.143 146.123 230.934 146.316C230.688 146.547 230.463 146.761 230.264 146.958C229.532 147.678 228.814 148.422 228.118 149.192C227.423 149.96 226.753 150.749 226.116 151.556C225.565 152.258 225.034 152.977 224.528 153.714C224.037 154.428 223.569 155.163 223.124 155.922L222.936 156.24L223.179 156.519C224.363 157.877 225.616 159.209 226.935 160.472C228.26 161.739 229.649 162.936 231.105 164.017C232.237 164.86 233.453 165.663 234.731 166.355C236.014 167.051 237.36 167.635 238.749 168.035L238.944 168.054C240.54 167.912 242.18 168.041 243.794 168.355C245.623 168.712 247.413 169.313 249.068 170.042C250.897 170.848 252.657 171.848 254.318 172.992C256.06 174.194 257.693 175.556 259.187 177.021C261.279 179.074 263.214 181.457 264.763 184.039C266.169 186.385 267.263 188.898 267.873 191.478C268.402 193.706 268.571 196.1 268.11 198.316C267.724 200.172 266.893 201.907 265.453 203.321C264.014 204.735 262.244 205.551 260.352 205.929C258.095 206.381 255.656 206.216 253.385 205.699C250.756 205.101 248.197 204.028 245.807 202.646C243.176 201.127 240.748 199.227 238.656 197.173C237.163 195.706 235.773 194.104 234.551 192.395C233.385 190.766 232.366 189.04 231.545 187.244C230.802 185.622 230.189 183.864 229.826 182.068C229.503 180.484 229.375 178.876 229.519 177.309L229.5 177.118Z" fill="#F89069" fill-opacity="0.1"/>
<path fill-rule="evenodd" clip-rule="evenodd" d="M350.373 4.35064C349.999 4.54431 349.612 4.75439 349.217 4.9775C348.811 5.20627 348.434 5.42768 348.085 5.63777C347.744 5.84446 347.393 6.06757 347.035 6.302C346.697 6.52341 346.36 6.75389 346.019 6.99398L345.513 7.3513L345.956 7.78449C350.215 11.9551 354.457 16.1454 358.697 20.3364L362.205 23.8093C363.299 24.8937 364.412 26.0008 365.554 27.1407L366.442 28.0207L366.476 28.0544C367.38 28.9479 368.3 29.8575 369.143 30.7869C369.173 30.8198 369.204 30.8543 369.235 30.889C369.288 30.9482 369.342 31.0082 369.396 31.0621C369.722 31.4081 370.121 31.7965 370.556 32.1482C371.009 32.5146 371.5 32.8345 371.999 33.0208C372.363 33.1567 372.723 33.2218 373.079 33.1845C373.458 33.1454 373.814 32.9965 374.14 32.7065L374.179 32.6748C374.622 32.2711 374.716 31.6873 374.632 31.0768C374.525 30.3237 374.131 29.5105 373.854 29.0626L373.791 28.9805L350.735 4.16264L350.373 4.35064ZM356.783 1.72769C356.392 1.84717 355.99 1.97911 355.577 2.12068C355.176 2.25828 354.778 2.40324 354.387 2.55217C354.049 2.68015 353.704 2.81775 353.352 2.96328C353.011 3.10428 352.673 3.24982 352.342 3.39818L351.627 3.72038L352.202 4.25041C355.633 7.43519 359.03 10.6018 362.423 13.7654C362.77 14.0882 363.116 14.411 363.462 14.7337C366.646 17.7044 369.83 20.675 373.012 23.6496L373.975 24.5443C374.821 25.3275 375.668 26.118 376.578 27.0087C376.587 27.0139 376.603 27.0313 376.613 27.0417L376.616 27.0444C376.951 27.3661 377.42 27.6843 377.914 27.8253C378.49 27.989 379.093 27.9312 379.599 27.4368C379.609 27.4272 379.629 27.4029 379.639 27.3978C380.143 26.9029 380.202 26.3111 380.033 25.7437C379.889 25.2567 379.563 24.7992 379.237 24.4679L379.203 24.4328C378.636 23.8761 378.121 23.3444 377.607 22.8144L377.084 22.2747C375.676 20.8296 374.271 19.3822 372.866 17.9332C370.473 15.4648 368.083 12.9908 365.695 10.5167C362.906 7.6299 360.118 4.74533 357.325 1.86585L357.097 1.63142L356.783 1.72769ZM365.234 0.130242C364.692 0.171013 364.152 0.22311 363.62 0.286532C363.098 0.349388 362.562 0.424135 362.012 0.518702C361.54 0.595148 361.095 0.674992 360.674 0.757101C360.229 0.844307 359.785 0.93944 359.347 1.04137L358.373 1.26844L359.11 1.93098C361.406 3.99729 363.644 6.09928 365.878 8.20127C366.963 9.22225 368.049 10.2415 369.084 11.2053C371.025 13.0112 373.003 14.8493 375.007 16.6143C377.027 18.3947 379.097 20.1246 381.227 21.7226L381.273 21.7521C381.726 22.0239 382.564 22.422 383.338 22.5296C383.96 22.6151 384.558 22.5222 384.974 22.0794L385.007 22.0443C385.298 21.7226 385.45 21.3744 385.49 21.0063C385.53 20.6563 385.465 20.303 385.325 19.9423C385.137 19.4547 384.809 18.9711 384.438 18.5266C384.08 18.0968 383.685 17.7084 383.335 17.3901C383.283 17.3395 383.226 17.29 383.17 17.2408C383.13 17.2069 383.091 17.1732 383.055 17.1393C382.434 16.5972 381.835 16.0187 381.245 15.449L381.223 15.428L378.557 12.8588L376.396 10.7625C373.937 8.37794 372.008 6.4934 370.09 4.61849L365.473 0.113254L365.234 0.130242ZM404.538 45.0557C405.478 42.2708 406.092 39.4287 406.293 36.5566C406.479 33.8764 406.303 31.168 405.687 28.4595C404.908 25.041 403.498 21.8784 401.661 18.9621C399.826 16.0509 397.573 13.3889 395.099 10.9618C393.431 9.32474 391.618 7.84565 389.678 6.53984C387.751 5.24365 385.7 4.12017 383.551 3.18979C381.58 2.33812 379.538 1.65181 377.452 1.1399C375.361 0.626859 373.225 0.288231 371.07 0.127977L369.391 0L370.693 1.0493L384.614 12.2467C387.099 14.0571 391.064 17.3884 393.778 20.9559C395.581 23.324 396.821 25.7811 396.661 27.9131L396.508 29.8084C396.276 32.548 396.11 34.5667 396.553 36.4507C397.002 38.3573 398.063 40.0629 400.281 42.1225L404.277 45.8315L404.538 45.0557ZM340.5 41.1179C340.106 39.8008 339.535 38.521 338.855 37.2973C338.178 36.0804 337.397 34.9218 336.576 33.8334C335.828 32.8475 335.02 31.89 334.173 30.9613C333.326 30.0332 332.444 29.1441 331.542 28.2942L330.858 27.6486L330.655 28.5581C329.87 32.0887 329.823 35.5764 330.341 39.0029C330.856 42.418 331.933 45.7698 333.396 49.0383C335.014 52.6505 337.081 56.1348 339.378 59.4695C341.671 62.7992 344.194 65.9799 346.731 68.9953C348.487 71.0786 350.316 73.1528 352.181 75.2191C354.019 77.256 355.892 79.2855 357.765 81.3128L358.468 82.0738L358.522 82.1329C361.662 85.5325 364.815 88.9468 367.774 92.5056L368.185 93L368.597 92.5056C371.56 88.941 374.72 85.5193 377.865 82.1146L377.878 82.0999L378.597 81.3224L378.691 81.2205C380.532 79.2249 382.374 77.2276 384.182 75.2231C386.049 73.1545 387.88 71.0786 389.635 68.9936C390.634 67.805 391.633 66.5881 392.626 65.3344C393.595 64.1107 394.549 62.8569 395.488 61.5698C396.358 60.3756 397.203 59.1649 398.011 57.9372C398.824 56.7039 399.601 55.4479 400.334 54.1721L400.526 53.8391L397.148 50.3254L394.605 47.6894C392.506 45.5133 390.768 44.4736 388.826 44.0325C386.904 43.5976 384.849 43.7612 382.055 43.9877L380.124 44.1384C377.952 44.2947 375.448 43.0783 373.034 41.3093C369.396 38.6456 366 34.7525 364.161 32.3175L364.148 32.3028C359.41 26.4896 354.703 20.8981 349.999 15.3098L349.755 15.0203C347.787 12.6839 345.801 10.3236 344.511 8.7851L344.169 8.37965L343.76 8.71658C343.546 8.89155 343.354 9.05124 343.187 9.19621C343.015 9.34344 342.827 9.50709 342.624 9.68716C342.372 9.91254 342.143 10.1226 341.934 10.3163C341.688 10.5468 341.463 10.7608 341.264 10.9579C340.532 11.6776 339.814 12.4217 339.118 13.1918C338.423 13.9602 337.753 14.749 337.116 15.556C336.565 16.2576 336.034 16.9773 335.528 17.714C335.037 18.4281 334.569 19.1631 334.124 19.9219L333.936 20.2396L334.179 20.5187C335.363 21.8767 336.616 23.2085 337.935 24.4719C339.26 25.7386 340.649 26.9363 342.105 28.0167C343.237 28.8599 344.453 29.6634 345.731 30.3554C347.014 31.0508 348.36 31.6352 349.749 32.035L349.944 32.0536C351.54 31.9121 353.18 32.0406 354.794 32.3549C356.623 32.7122 358.413 33.313 360.068 34.0418C361.897 34.8476 363.657 35.8482 365.318 36.9921C367.06 38.1937 368.693 39.5556 370.187 41.0211C372.279 43.0744 374.214 45.4572 375.763 48.0394C377.169 50.3849 378.263 52.898 378.873 55.4779C379.402 57.7062 379.571 60.1003 379.11 62.3156C378.724 64.1718 377.893 65.9074 376.453 67.3214C375.014 68.7348 373.244 69.5514 371.352 69.9291C369.095 70.381 366.656 70.2156 364.385 69.6986C361.756 69.1012 359.197 68.0281 356.807 66.6458C354.176 65.1265 351.748 63.2273 349.656 61.1734C348.163 59.7057 346.773 58.1042 345.551 56.3947C344.385 54.7655 343.366 53.0395 342.545 51.2445C341.802 49.6221 341.189 47.8644 340.826 46.0676C340.503 44.4844 340.375 42.8756 340.519 41.3093L340.5 41.1179Z" fill="#F89069" fill-opacity="0.1"/>
<path fill-rule="evenodd" clip-rule="evenodd" d="M474.373 140.351C473.999 140.544 473.612 140.754 473.217 140.978C472.811 141.206 472.434 141.428 472.085 141.638C471.744 141.844 471.393 142.068 471.035 142.302C470.697 142.523 470.36 142.754 470.019 142.994L469.513 143.351L469.956 143.784C474.215 147.955 478.457 152.145 482.697 156.336L486.205 159.809C487.299 160.894 488.412 162.001 489.554 163.141L490.442 164.021L490.476 164.054C491.38 164.948 492.3 165.857 493.143 166.787C493.173 166.82 493.204 166.854 493.235 166.889C493.288 166.948 493.342 167.008 493.396 167.062C493.722 167.408 494.121 167.797 494.556 168.148C495.009 168.515 495.5 168.835 495.999 169.021C496.363 169.157 496.723 169.222 497.079 169.184C497.458 169.145 497.814 168.996 498.14 168.707L498.179 168.675C498.622 168.271 498.716 167.687 498.632 167.077C498.525 166.324 498.131 165.511 497.854 165.063L497.791 164.98L474.735 140.163L474.373 140.351ZM480.783 137.728C480.392 137.847 479.99 137.979 479.577 138.121C479.176 138.258 478.778 138.403 478.387 138.552C478.049 138.68 477.704 138.818 477.352 138.963C477.011 139.104 476.673 139.25 476.342 139.398L475.627 139.72L476.202 140.25C479.633 143.435 483.03 146.602 486.423 149.765C486.77 150.088 487.116 150.411 487.462 150.734C490.646 153.704 493.83 156.675 497.012 159.65L497.975 160.544C498.821 161.327 499.668 162.118 500.578 163.009C500.587 163.014 500.603 163.031 500.613 163.042L500.616 163.044C500.951 163.366 501.42 163.684 501.914 163.825C502.49 163.989 503.093 163.931 503.599 163.437C503.609 163.427 503.629 163.403 503.639 163.398C504.143 162.903 504.202 162.311 504.033 161.744C503.889 161.257 503.563 160.799 503.237 160.468L503.203 160.433C502.636 159.876 502.121 159.344 501.607 158.814L501.084 158.275C499.676 156.83 498.271 155.382 496.866 153.933C494.473 151.465 492.083 148.991 489.695 146.517C486.906 143.63 484.118 140.745 481.325 137.866L481.097 137.631L480.783 137.728ZM489.234 136.13C488.692 136.171 488.152 136.223 487.62 136.287C487.098 136.349 486.562 136.424 486.012 136.519C485.54 136.595 485.095 136.675 484.674 136.757C484.229 136.844 483.785 136.939 483.347 137.041L482.373 137.268L483.11 137.931C485.406 139.997 487.644 142.099 489.878 144.201C490.963 145.222 492.049 146.242 493.084 147.205C495.025 149.011 497.003 150.849 499.007 152.614C501.027 154.395 503.097 156.125 505.227 157.723L505.273 157.752C505.726 158.024 506.564 158.422 507.338 158.53C507.96 158.615 508.558 158.522 508.974 158.079L509.007 158.044C509.298 157.723 509.45 157.374 509.49 157.006C509.53 156.656 509.465 156.303 509.325 155.942C509.137 155.455 508.809 154.971 508.438 154.527C508.08 154.097 507.685 153.708 507.335 153.39C507.283 153.339 507.226 153.29 507.17 153.241C507.13 153.207 507.091 153.173 507.055 153.139C506.434 152.597 505.835 152.019 505.245 151.449L505.223 151.428L502.557 148.859L500.396 146.763C497.937 144.378 496.008 142.493 494.09 140.618L489.473 136.113L489.234 136.13ZM528.538 181.056C529.478 178.271 530.092 175.429 530.293 172.557C530.479 169.876 530.303 167.168 529.687 164.46C528.908 161.041 527.498 157.878 525.661 154.962C523.826 152.051 521.573 149.389 519.099 146.962C517.431 145.325 515.618 143.846 513.678 142.54C511.751 141.244 509.7 140.12 507.551 139.19C505.58 138.338 503.538 137.652 501.452 137.14C499.361 136.627 497.225 136.288 495.07 136.128L493.391 136L494.693 137.049L508.614 148.247C511.099 150.057 515.064 153.388 517.778 156.956C519.581 159.324 520.821 161.781 520.661 163.913L520.508 165.808C520.276 168.548 520.11 170.567 520.553 172.451C521.002 174.357 522.063 176.063 524.281 178.122L528.277 181.832L528.538 181.056ZM464.5 177.118C464.106 175.801 463.535 174.521 462.855 173.297C462.178 172.08 461.397 170.922 460.576 169.833C459.828 168.848 459.02 167.89 458.173 166.961C457.326 166.033 456.444 165.144 455.542 164.294L454.858 163.649L454.655 164.558C453.87 168.089 453.823 171.576 454.341 175.003C454.856 178.418 455.933 181.77 457.396 185.038C459.014 188.651 461.081 192.135 463.378 195.47C465.671 198.799 468.194 201.98 470.731 204.995C472.487 207.079 474.316 209.153 476.181 211.219C478.019 213.256 479.892 215.286 481.765 217.313L482.468 218.074L482.522 218.133C485.662 221.532 488.815 224.947 491.774 228.506L492.185 229L492.597 228.506C495.56 224.941 498.72 221.519 501.865 218.115L501.878 218.1L502.597 217.322L502.691 217.22C504.532 215.225 506.374 213.228 508.182 211.223C510.049 209.155 511.88 207.079 513.635 204.994C514.634 203.805 515.633 202.588 516.626 201.334C517.595 200.111 518.549 198.857 519.488 197.57C520.358 196.376 521.203 195.165 522.011 193.937C522.824 192.704 523.601 191.448 524.334 190.172L524.526 189.839L521.148 186.325L518.605 183.689C516.506 181.513 514.768 180.474 512.826 180.032C510.904 179.598 508.849 179.761 506.055 179.988L504.124 180.138C501.952 180.295 499.448 179.078 497.034 177.309C493.396 174.646 490 170.752 488.161 168.318L488.148 168.303C483.41 162.49 478.703 156.898 473.999 151.31L473.755 151.02C471.787 148.684 469.801 146.324 468.511 144.785L468.169 144.38L467.76 144.717C467.546 144.892 467.354 145.051 467.187 145.196C467.015 145.343 466.827 145.507 466.624 145.687C466.372 145.913 466.143 146.123 465.934 146.316C465.688 146.547 465.463 146.761 465.264 146.958C464.532 147.678 463.814 148.422 463.118 149.192C462.423 149.96 461.753 150.749 461.116 151.556C460.565 152.258 460.034 152.977 459.528 153.714C459.037 154.428 458.569 155.163 458.124 155.922L457.936 156.24L458.179 156.519C459.363 157.877 460.616 159.209 461.935 160.472C463.26 161.739 464.649 162.936 466.105 164.017C467.237 164.86 468.453 165.663 469.731 166.355C471.014 167.051 472.36 167.635 473.749 168.035L473.944 168.054C475.54 167.912 477.18 168.041 478.794 168.355C480.623 168.712 482.413 169.313 484.068 170.042C485.897 170.848 487.657 171.848 489.318 172.992C491.06 174.194 492.693 175.556 494.187 177.021C496.279 179.074 498.214 181.457 499.763 184.039C501.169 186.385 502.263 188.898 502.873 191.478C503.402 193.706 503.571 196.1 503.11 198.316C502.724 200.172 501.893 201.907 500.453 203.321C499.014 204.735 497.244 205.551 495.352 205.929C493.095 206.381 490.656 206.216 488.385 205.699C485.756 205.101 483.197 204.028 480.807 202.646C478.176 201.127 475.748 199.227 473.656 197.173C472.163 195.706 470.773 194.104 469.551 192.395C468.385 190.766 467.366 189.04 466.545 187.244C465.802 185.622 465.189 183.864 464.826 182.068C464.503 180.484 464.375 178.876 464.519 177.309L464.5 177.118Z" fill="#F89069" fill-opacity="0.1"/>
<path fill-rule="evenodd" clip-rule="evenodd" d="M568.373 4.35064C567.999 4.54431 567.612 4.75439 567.217 4.9775C566.811 5.20627 566.434 5.42768 566.085 5.63777C565.744 5.84446 565.393 6.06757 565.035 6.302C564.697 6.52341 564.36 6.75389 564.019 6.99398L563.513 7.3513L563.956 7.78449C568.215 11.9551 572.457 16.1454 576.697 20.3364L580.205 23.8093C581.299 24.8937 582.412 26.0008 583.554 27.1407L584.442 28.0207L584.476 28.0544C585.38 28.9479 586.3 29.8575 587.143 30.7869C587.173 30.8198 587.204 30.8543 587.235 30.889C587.288 30.9482 587.342 31.0082 587.396 31.0621C587.722 31.4081 588.121 31.7965 588.556 32.1482C589.009 32.5146 589.5 32.8345 589.999 33.0208C590.363 33.1567 590.723 33.2218 591.079 33.1845C591.458 33.1454 591.814 32.9965 592.14 32.7065L592.179 32.6748C592.622 32.2711 592.716 31.6873 592.632 31.0768C592.525 30.3237 592.131 29.5105 591.854 29.0626L591.791 28.9805L568.735 4.16264L568.373 4.35064ZM574.783 1.72769C574.392 1.84717 573.99 1.97911 573.577 2.12068C573.176 2.25828 572.778 2.40324 572.387 2.55217C572.049 2.68015 571.704 2.81775 571.352 2.96328C571.011 3.10428 570.673 3.24982 570.342 3.39818L569.627 3.72038L570.202 4.25041C573.633 7.43519 577.03 10.6018 580.423 13.7654C580.77 14.0882 581.116 14.411 581.462 14.7337C584.646 17.7044 587.83 20.675 591.012 23.6496L591.975 24.5443C592.821 25.3275 593.668 26.118 594.578 27.0087C594.587 27.0139 594.603 27.0313 594.613 27.0417L594.616 27.0444C594.951 27.3661 595.42 27.6843 595.914 27.8253C596.49 27.989 597.093 27.9312 597.599 27.4368C597.609 27.4272 597.629 27.4029 597.639 27.3978C598.143 26.9029 598.202 26.3111 598.033 25.7437C597.889 25.2567 597.563 24.7992 597.237 24.4679L597.203 24.4328C596.636 23.8761 596.121 23.3444 595.607 22.8144L595.084 22.2747C593.676 20.8296 592.271 19.3822 590.866 17.9332C588.473 15.4648 586.083 12.9908 583.695 10.5167C580.906 7.6299 578.118 4.74533 575.325 1.86585L575.097 1.63142L574.783 1.72769ZM583.234 0.130242C582.692 0.171013 582.152 0.22311 581.62 0.286532C581.098 0.349388 580.562 0.424135 580.012 0.518702C579.54 0.595148 579.095 0.674992 578.674 0.757101C578.229 0.844307 577.785 0.93944 577.347 1.04137L576.373 1.26844L577.11 1.93098C579.406 3.99729 581.644 6.09928 583.878 8.20127C584.963 9.22225 586.049 10.2415 587.084 11.2053C589.025 13.0112 591.003 14.8493 593.007 16.6143C595.027 18.3947 597.097 20.1246 599.227 21.7226L599.273 21.7521C599.726 22.0239 600.564 22.422 601.338 22.5296C601.96 22.6151 602.558 22.5222 602.974 22.0794L603.007 22.0443C603.298 21.7226 603.45 21.3744 603.49 21.0063C603.53 20.6563 603.465 20.303 603.325 19.9423C603.137 19.4547 602.809 18.9711 602.438 18.5266C602.08 18.0968 601.685 17.7084 601.335 17.3901C601.283 17.3395 601.226 17.29 601.17 17.2408C601.13 17.2069 601.091 17.1732 601.055 17.1393C600.434 16.5972 599.835 16.0187 599.245 15.449L599.223 15.428L596.557 12.8588L594.396 10.7625C591.937 8.37794 590.008 6.4934 588.09 4.61849L583.473 0.113254L583.234 0.130242ZM622.538 45.0557C623.478 42.2708 624.092 39.4287 624.293 36.5566C624.479 33.8764 624.303 31.168 623.687 28.4595C622.908 25.041 621.498 21.8784 619.661 18.9621C617.826 16.0509 615.573 13.3889 613.099 10.9618C611.431 9.32474 609.618 7.84565 607.678 6.53984C605.751 5.24365 603.7 4.12017 601.551 3.18979C599.58 2.33812 597.538 1.65181 595.452 1.1399C593.361 0.626859 591.225 0.288231 589.07 0.127977L587.391 0L588.693 1.0493L602.614 12.2467C605.099 14.0571 609.064 17.3884 611.778 20.9559C613.581 23.324 614.821 25.7811 614.661 27.9131L614.508 29.8084C614.276 32.548 614.11 34.5667 614.553 36.4507C615.002 38.3573 616.063 40.0629 618.281 42.1225L622.277 45.8315L622.538 45.0557ZM558.5 41.1179C558.106 39.8008 557.535 38.521 556.855 37.2973C556.178 36.0804 555.397 34.9218 554.576 33.8334C553.828 32.8475 553.02 31.89 552.173 30.9613C551.326 30.0332 550.444 29.1441 549.542 28.2942L548.858 27.6486L548.655 28.5581C547.87 32.0887 547.823 35.5764 548.341 39.0029C548.856 42.418 549.933 45.7698 551.396 49.0383C553.014 52.6505 555.081 56.1348 557.378 59.4695C559.671 62.7992 562.194 65.9799 564.731 68.9953C566.487 71.0786 568.316 73.1528 570.181 75.2191C572.019 77.256 573.892 79.2855 575.765 81.3128L576.468 82.0738L576.522 82.1329C579.662 85.5325 582.815 88.9468 585.774 92.5056L586.185 93L586.597 92.5056C589.56 88.941 592.72 85.5193 595.865 82.1146L595.878 82.0999L596.597 81.3224L596.691 81.2205C598.532 79.2249 600.374 77.2276 602.182 75.2231C604.049 73.1545 605.88 71.0786 607.635 68.9936C608.634 67.805 609.633 66.5881 610.626 65.3344C611.595 64.1107 612.549 62.8569 613.488 61.5698C614.358 60.3756 615.203 59.1649 616.011 57.9372C616.824 56.7039 617.601 55.4479 618.334 54.1721L618.526 53.8391L615.148 50.3254L612.605 47.6894C610.506 45.5133 608.768 44.4736 606.826 44.0325C604.904 43.5976 602.849 43.7612 600.055 43.9877L598.124 44.1384C595.952 44.2947 593.448 43.0783 591.034 41.3093C587.396 38.6456 584 34.7525 582.161 32.3175L582.148 32.3028C577.41 26.4896 572.703 20.8981 567.999 15.3098L567.755 15.0203C565.787 12.6839 563.801 10.3236 562.511 8.7851L562.169 8.37965L561.76 8.71658C561.546 8.89155 561.354 9.05124 561.187 9.19621C561.015 9.34344 560.827 9.50709 560.624 9.68716C560.372 9.91254 560.143 10.1226 559.934 10.3163C559.688 10.5468 559.463 10.7608 559.264 10.9579C558.532 11.6776 557.814 12.4217 557.118 13.1918C556.423 13.9602 555.753 14.749 555.116 15.556C554.565 16.2576 554.034 16.9773 553.528 17.714C553.037 18.4281 552.569 19.1631 552.124 19.9219L551.936 20.2396L552.179 20.5187C553.363 21.8767 554.616 23.2085 555.935 24.4719C557.26 25.7386 558.649 26.9363 560.105 28.0167C561.237 28.8599 562.453 29.6634 563.731 30.3554C565.014 31.0508 566.36 31.6352 567.749 32.035L567.944 32.0536C569.54 31.9121 571.18 32.0406 572.794 32.3549C574.623 32.7122 576.413 33.313 578.068 34.0418C579.897 34.8476 581.657 35.8482 583.318 36.9921C585.06 38.1937 586.693 39.5556 588.187 41.0211C590.279 43.0744 592.214 45.4572 593.763 48.0394C595.169 50.3849 596.263 52.898 596.873 55.4779C597.402 57.7062 597.571 60.1003 597.11 62.3156C596.724 64.1718 595.893 65.9074 594.453 67.3214C593.014 68.7348 591.244 69.5514 589.352 69.9291C587.095 70.381 584.656 70.2156 582.385 69.6986C579.756 69.1012 577.197 68.0281 574.807 66.6458C572.176 65.1265 569.748 63.2273 567.656 61.1734C566.163 59.7057 564.773 58.1042 563.551 56.3947C562.385 54.7655 561.366 53.0395 560.545 51.2445C559.802 49.6221 559.189 47.8644 558.826 46.0676C558.503 44.4844 558.375 42.8756 558.519 41.3093L558.5 41.1179Z" fill="#F89069" fill-opacity="0.1"/>
</svg>
