<svg width="675" height="265" viewBox="0 0 675 265" fill="none" xmlns="http://www.w3.org/2000/svg">
<rect width="675" height="265" fill="#D9D9D9"/>
<path d="M42.3018 97L39 87.2451H40.873L43.5391 95.4756H43.6484L46.3076 87.2451H48.1807L44.8789 97H42.3018ZM48.8301 93.3154C48.8301 92.5635 48.9281 91.946 49.124 91.4629C49.32 90.9798 49.5798 90.5993 49.9033 90.3213C50.2269 90.0433 50.596 89.8519 51.0107 89.7471C51.4255 89.6377 51.8516 89.583 52.2891 89.583C52.8405 89.583 53.2962 89.6582 53.6562 89.8086C54.0208 89.959 54.3102 90.1709 54.5244 90.4443C54.7386 90.7132 54.889 91.0368 54.9756 91.415C55.0622 91.7933 55.1055 92.2103 55.1055 92.666C55.1055 92.8802 55.0964 93.1012 55.0781 93.3291C55.0645 93.557 55.0439 93.7917 55.0166 94.0332H50.498C50.5026 94.3568 50.5368 94.6302 50.6006 94.8535C50.6689 95.0723 50.7783 95.2523 50.9287 95.3936C51.0837 95.5303 51.2865 95.6305 51.5371 95.6943C51.7923 95.7536 52.109 95.7832 52.4873 95.7832C52.8063 95.7832 53.1048 95.7764 53.3828 95.7627C53.6608 95.7445 53.9046 95.724 54.1143 95.7012C54.3604 95.6784 54.5837 95.6488 54.7842 95.6123V96.7471C54.5518 96.8337 54.2988 96.9111 54.0254 96.9795C53.793 97.0387 53.5218 97.0911 53.2119 97.1367C52.902 97.1868 52.5716 97.2119 52.2207 97.2119C51.6829 97.2119 51.2044 97.1436 50.7852 97.0068C50.3659 96.8747 50.0104 96.6559 49.7188 96.3506C49.4316 96.0407 49.2106 95.6374 49.0557 95.1406C48.9053 94.6439 48.8301 94.0355 48.8301 93.3154ZM53.6084 92.8164V92.5566C53.6084 92.2832 53.5902 92.0462 53.5537 91.8457C53.5218 91.6406 53.4535 91.472 53.3486 91.3398C53.2438 91.2077 53.0957 91.1097 52.9043 91.0459C52.7129 90.9821 52.4577 90.9502 52.1387 90.9502C51.7969 90.9502 51.5166 90.9912 51.2979 91.0732C51.0837 91.1507 50.915 91.2692 50.792 91.4287C50.6735 91.5837 50.5915 91.7773 50.5459 92.0098C50.5049 92.2422 50.4844 92.5111 50.4844 92.8164H53.6084ZM56.7461 89.7881H57.9355L58.1338 90.3213C58.3844 90.1846 58.6579 90.0615 58.9541 89.9521C59.2093 89.861 59.5033 89.7767 59.8359 89.6992C60.1686 89.6217 60.5241 89.583 60.9023 89.583C61.6133 89.583 62.1374 89.7699 62.4746 90.1436C62.8164 90.5127 62.9873 91.0938 62.9873 91.8867V97H61.3672V92.085C61.3672 91.8981 61.3535 91.7386 61.3262 91.6064C61.3034 91.4697 61.251 91.3604 61.1689 91.2783C61.0869 91.1917 60.9684 91.1279 60.8135 91.0869C60.6585 91.0459 60.4512 91.0254 60.1914 91.0254C59.918 91.0254 59.6696 91.0436 59.4463 91.0801C59.223 91.112 59.0316 91.1462 58.8721 91.1826C58.6852 91.2282 58.5166 91.2783 58.3662 91.333V97H56.7461V89.7881ZM65.25 86.377H66.8701V90.1367C67.1117 90.0456 67.3714 89.9613 67.6494 89.8838C67.8864 89.82 68.1576 89.7607 68.4629 89.7061C68.7728 89.6514 69.0918 89.624 69.4199 89.624C69.748 89.624 70.0443 89.6605 70.3086 89.7334C70.5775 89.8018 70.8031 89.9271 70.9854 90.1094C71.1722 90.2871 71.3158 90.5309 71.416 90.8408C71.5163 91.1462 71.5664 91.5381 71.5664 92.0166V97H69.9395V92.2148C69.9395 92.0234 69.9258 91.8571 69.8984 91.7158C69.8711 91.57 69.8118 91.4515 69.7207 91.3604C69.6341 91.2646 69.5065 91.194 69.3379 91.1484C69.1738 91.1029 68.9551 91.0801 68.6816 91.0801C68.4629 91.0801 68.2464 91.0938 68.0322 91.1211C67.8226 91.1484 67.6312 91.1781 67.458 91.21C67.2529 91.2464 67.057 91.2874 66.8701 91.333V97H65.25V86.377ZM73.5557 94.9561C73.5557 94.5459 73.6149 94.1995 73.7334 93.917C73.8564 93.6344 74.0205 93.4066 74.2256 93.2334C74.4352 93.0602 74.679 92.9349 74.957 92.8574C75.2396 92.7799 75.5426 92.7412 75.8662 92.7412C76.1943 92.7412 76.4906 92.7594 76.7549 92.7959C77.0238 92.8324 77.2562 92.8734 77.4521 92.9189C77.6755 92.9691 77.8783 93.026 78.0605 93.0898V92.4199C78.0605 92.2513 78.0537 92.11 78.04 91.9961C78.0309 91.8776 78.0127 91.7751 77.9854 91.6885C77.958 91.6019 77.9193 91.529 77.8691 91.4697C77.8236 91.4105 77.7666 91.3535 77.6982 91.2988C77.5524 91.194 77.3519 91.1188 77.0967 91.0732C76.8415 91.0277 76.5088 91.0049 76.0986 91.0049C75.8389 91.0049 75.5859 91.014 75.3398 91.0322C75.0983 91.0459 74.8818 91.0641 74.6904 91.0869C74.4671 91.1097 74.2552 91.1348 74.0547 91.1621V90.0273C74.237 89.9544 74.4626 89.8883 74.7314 89.8291C74.9593 89.779 75.2441 89.7334 75.5859 89.6924C75.9277 89.6468 76.3333 89.624 76.8027 89.624C77.1172 89.624 77.3952 89.6377 77.6367 89.665C77.8828 89.6878 78.0993 89.7288 78.2861 89.7881C78.473 89.8473 78.637 89.9248 78.7783 90.0205C78.9242 90.1162 79.054 90.2347 79.168 90.376C79.2637 90.4945 79.3434 90.6198 79.4072 90.752C79.471 90.8841 79.5234 91.0391 79.5645 91.2168C79.6055 91.3945 79.6328 91.5996 79.6465 91.832C79.6647 92.0599 79.6738 92.3265 79.6738 92.6318V97H78.2998L78.1768 96.4668C77.9762 96.6081 77.7552 96.7334 77.5137 96.8428C77.304 96.9339 77.0579 97.0182 76.7754 97.0957C76.4974 97.1732 76.1898 97.2119 75.8525 97.2119C75.4424 97.2119 75.0915 97.1709 74.7998 97.0889C74.5081 97.0068 74.2689 96.877 74.082 96.6992C73.8997 96.5215 73.7653 96.2891 73.6787 96.002C73.5967 95.7148 73.5557 95.3662 73.5557 94.9561ZM75.2168 94.9561C75.2168 95.1566 75.2419 95.3161 75.292 95.4346C75.3421 95.5531 75.415 95.6442 75.5107 95.708C75.6064 95.7673 75.7227 95.806 75.8594 95.8242C76.0007 95.8424 76.1602 95.8516 76.3379 95.8516C76.5703 95.8516 76.7891 95.8311 76.9941 95.79C77.2038 95.7445 77.3883 95.6966 77.5479 95.6465C77.7301 95.5872 77.901 95.5189 78.0605 95.4414V94.1904C77.9147 94.1631 77.7575 94.138 77.5889 94.1152C77.443 94.0924 77.2767 94.0742 77.0898 94.0605C76.9076 94.0423 76.7139 94.0332 76.5088 94.0332C76.2809 94.0332 76.085 94.0446 75.9209 94.0674C75.7614 94.0856 75.6292 94.1289 75.5244 94.1973C75.4196 94.2611 75.3421 94.3545 75.292 94.4775C75.2419 94.596 75.2168 94.7555 75.2168 94.9561ZM85.9766 91.1348H84.9648V89.7881H85.9766V88.585C85.9766 88.2158 86.0107 87.8877 86.0791 87.6006C86.152 87.3135 86.2682 87.0719 86.4277 86.876C86.5872 86.68 86.7969 86.5319 87.0566 86.4316C87.321 86.3268 87.6423 86.2744 88.0205 86.2744C88.3031 86.2744 88.5583 86.2881 88.7861 86.3154C89.0186 86.3428 89.2145 86.3747 89.374 86.4111C89.5609 86.4521 89.7295 86.4954 89.8799 86.541V87.7441C89.7568 87.735 89.6247 87.7259 89.4834 87.7168C89.3649 87.7077 89.2282 87.7008 89.0732 87.6963C88.9183 87.6917 88.7588 87.6895 88.5947 87.6895C88.3942 87.6895 88.2301 87.7054 88.1025 87.7373C87.9749 87.7646 87.8724 87.8125 87.7949 87.8809C87.722 87.9447 87.6696 88.029 87.6377 88.1338C87.6104 88.2386 87.5967 88.3662 87.5967 88.5166V89.7881H89.4424V91.1348H87.5967V97H85.9766V91.1348ZM90.5225 94.9561C90.5225 94.5459 90.5817 94.1995 90.7002 93.917C90.8232 93.6344 90.9873 93.4066 91.1924 93.2334C91.402 93.0602 91.6458 92.9349 91.9238 92.8574C92.2064 92.7799 92.5094 92.7412 92.833 92.7412C93.1611 92.7412 93.4574 92.7594 93.7217 92.7959C93.9906 92.8324 94.223 92.8734 94.4189 92.9189C94.6423 92.9691 94.8451 93.026 95.0273 93.0898V92.4199C95.0273 92.2513 95.0205 92.11 95.0068 91.9961C94.9977 91.8776 94.9795 91.7751 94.9521 91.6885C94.9248 91.6019 94.8861 91.529 94.8359 91.4697C94.7904 91.4105 94.7334 91.3535 94.665 91.2988C94.5192 91.194 94.3187 91.1188 94.0635 91.0732C93.8083 91.0277 93.4756 91.0049 93.0654 91.0049C92.8057 91.0049 92.5527 91.014 92.3066 91.0322C92.0651 91.0459 91.8486 91.0641 91.6572 91.0869C91.4339 91.1097 91.222 91.1348 91.0215 91.1621V90.0273C91.2038 89.9544 91.4294 89.8883 91.6982 89.8291C91.9261 89.779 92.2109 89.7334 92.5527 89.6924C92.8945 89.6468 93.3001 89.624 93.7695 89.624C94.084 89.624 94.362 89.6377 94.6035 89.665C94.8496 89.6878 95.0661 89.7288 95.2529 89.7881C95.4398 89.8473 95.6038 89.9248 95.7451 90.0205C95.891 90.1162 96.0208 90.2347 96.1348 90.376C96.2305 90.4945 96.3102 90.6198 96.374 90.752C96.4378 90.8841 96.4902 91.0391 96.5312 91.2168C96.5723 91.3945 96.5996 91.5996 96.6133 91.832C96.6315 92.0599 96.6406 92.3265 96.6406 92.6318V97H95.2666L95.1436 96.4668C94.943 96.6081 94.722 96.7334 94.4805 96.8428C94.2708 96.9339 94.0247 97.0182 93.7422 97.0957C93.4642 97.1732 93.1566 97.2119 92.8193 97.2119C92.4092 97.2119 92.0583 97.1709 91.7666 97.0889C91.4749 97.0068 91.2357 96.877 91.0488 96.6992C90.8665 96.5215 90.7321 96.2891 90.6455 96.002C90.5635 95.7148 90.5225 95.3662 90.5225 94.9561ZM92.1836 94.9561C92.1836 95.1566 92.2087 95.3161 92.2588 95.4346C92.3089 95.5531 92.3818 95.6442 92.4775 95.708C92.5732 95.7673 92.6895 95.806 92.8262 95.8242C92.9674 95.8424 93.127 95.8516 93.3047 95.8516C93.5371 95.8516 93.7559 95.8311 93.9609 95.79C94.1706 95.7445 94.3551 95.6966 94.5146 95.6465C94.6969 95.5872 94.8678 95.5189 95.0273 95.4414V94.1904C94.8815 94.1631 94.7243 94.138 94.5557 94.1152C94.4098 94.0924 94.2435 94.0742 94.0566 94.0605C93.8743 94.0423 93.6807 94.0332 93.4756 94.0332C93.2477 94.0332 93.0518 94.0446 92.8877 94.0674C92.7282 94.0856 92.596 94.1289 92.4912 94.1973C92.3864 94.2611 92.3089 94.3545 92.2588 94.4775C92.2087 94.596 92.1836 94.7555 92.1836 94.9561ZM98.6162 95.9199L102.267 91.1895V91.1758H98.7529V89.7881H104.509V90.8135L100.838 95.5576V95.5713H104.591V97H98.6162V95.9199ZM105.924 93.3154C105.924 92.5635 106.022 91.946 106.218 91.4629C106.414 90.9798 106.674 90.5993 106.997 90.3213C107.321 90.0433 107.69 89.8519 108.104 89.7471C108.519 89.6377 108.945 89.583 109.383 89.583C109.934 89.583 110.39 89.6582 110.75 89.8086C111.115 89.959 111.404 90.1709 111.618 90.4443C111.832 90.7132 111.983 91.0368 112.069 91.415C112.156 91.7933 112.199 92.2103 112.199 92.666C112.199 92.8802 112.19 93.1012 112.172 93.3291C112.158 93.557 112.138 93.7917 112.11 94.0332H107.592C107.596 94.3568 107.631 94.6302 107.694 94.8535C107.763 95.0723 107.872 95.2523 108.022 95.3936C108.177 95.5303 108.38 95.6305 108.631 95.6943C108.886 95.7536 109.203 95.7832 109.581 95.7832C109.9 95.7832 110.199 95.7764 110.477 95.7627C110.755 95.7445 110.998 95.724 111.208 95.7012C111.454 95.6784 111.677 95.6488 111.878 95.6123V96.7471C111.646 96.8337 111.393 96.9111 111.119 96.9795C110.887 97.0387 110.616 97.0911 110.306 97.1367C109.996 97.1868 109.665 97.2119 109.314 97.2119C108.777 97.2119 108.298 97.1436 107.879 97.0068C107.46 96.8747 107.104 96.6559 106.812 96.3506C106.525 96.0407 106.304 95.6374 106.149 95.1406C105.999 94.6439 105.924 94.0355 105.924 93.3154ZM110.702 92.8164V92.5566C110.702 92.2832 110.684 92.0462 110.647 91.8457C110.616 91.6406 110.547 91.472 110.442 91.3398C110.338 91.2077 110.189 91.1097 109.998 91.0459C109.807 90.9821 109.551 90.9502 109.232 90.9502C108.891 90.9502 108.61 90.9912 108.392 91.0732C108.177 91.1507 108.009 91.2692 107.886 91.4287C107.767 91.5837 107.685 91.7773 107.64 92.0098C107.599 92.2422 107.578 92.5111 107.578 92.8164H110.702ZM113.84 89.7881H115.241L115.337 90.5742C115.692 90.3418 116.091 90.1504 116.533 90C116.975 89.8496 117.472 89.7607 118.023 89.7334L118.01 91.415C117.44 91.4242 116.946 91.4538 116.526 91.5039C116.112 91.5495 115.756 91.6315 115.46 91.75V97H113.84V89.7881ZM124.538 100.315H122.918V89.7881H124.107L124.306 90.3213C124.556 90.1846 124.83 90.0615 125.126 89.9521C125.381 89.861 125.673 89.7767 126.001 89.6992C126.334 89.6217 126.691 89.583 127.074 89.583C127.457 89.583 127.79 89.6559 128.072 89.8018C128.355 89.943 128.59 90.1686 128.776 90.4785C128.968 90.7839 129.109 91.1781 129.2 91.6611C129.296 92.1396 129.344 92.7161 129.344 93.3906C129.344 94.1061 129.287 94.7077 129.173 95.1953C129.063 95.6829 128.897 96.0771 128.674 96.3779C128.455 96.6742 128.184 96.8861 127.86 97.0137C127.537 97.1458 127.163 97.2119 126.739 97.2119C126.434 97.2119 126.147 97.1868 125.878 97.1367C125.614 97.0866 125.381 97.0296 125.181 96.9658C124.948 96.8929 124.734 96.8109 124.538 96.7197V100.315ZM124.538 95.5576C124.67 95.5986 124.818 95.6328 124.982 95.6602C125.124 95.6829 125.29 95.7057 125.481 95.7285C125.677 95.7467 125.896 95.7559 126.138 95.7559C126.434 95.7559 126.678 95.7285 126.869 95.6738C127.065 95.6146 127.218 95.4984 127.327 95.3252C127.441 95.152 127.521 94.9082 127.566 94.5938C127.612 94.2747 127.635 93.8577 127.635 93.3428C127.635 92.9189 127.617 92.5612 127.58 92.2695C127.548 91.9733 127.484 91.734 127.389 91.5518C127.298 91.3649 127.168 91.2305 126.999 91.1484C126.835 91.0664 126.623 91.0254 126.363 91.0254C126.126 91.0254 125.898 91.0436 125.68 91.0801C125.461 91.112 125.267 91.1462 125.099 91.1826C124.898 91.2282 124.711 91.2783 124.538 91.333V95.5576ZM130.978 94.9561C130.978 94.5459 131.037 94.1995 131.155 93.917C131.278 93.6344 131.442 93.4066 131.647 93.2334C131.857 93.0602 132.101 92.9349 132.379 92.8574C132.661 92.7799 132.965 92.7412 133.288 92.7412C133.616 92.7412 133.912 92.7594 134.177 92.7959C134.446 92.8324 134.678 92.8734 134.874 92.9189C135.097 92.9691 135.3 93.026 135.482 93.0898V92.4199C135.482 92.2513 135.476 92.11 135.462 91.9961C135.453 91.8776 135.435 91.7751 135.407 91.6885C135.38 91.6019 135.341 91.529 135.291 91.4697C135.245 91.4105 135.188 91.3535 135.12 91.2988C134.974 91.194 134.774 91.1188 134.519 91.0732C134.263 91.0277 133.931 91.0049 133.521 91.0049C133.261 91.0049 133.008 91.014 132.762 91.0322C132.52 91.0459 132.304 91.0641 132.112 91.0869C131.889 91.1097 131.677 91.1348 131.477 91.1621V90.0273C131.659 89.9544 131.884 89.8883 132.153 89.8291C132.381 89.779 132.666 89.7334 133.008 89.6924C133.35 89.6468 133.755 89.624 134.225 89.624C134.539 89.624 134.817 89.6377 135.059 89.665C135.305 89.6878 135.521 89.7288 135.708 89.7881C135.895 89.8473 136.059 89.9248 136.2 90.0205C136.346 90.1162 136.476 90.2347 136.59 90.376C136.686 90.4945 136.765 90.6198 136.829 90.752C136.893 90.8841 136.945 91.0391 136.986 91.2168C137.027 91.3945 137.055 91.5996 137.068 91.832C137.087 92.0599 137.096 92.3265 137.096 92.6318V97H135.722L135.599 96.4668C135.398 96.6081 135.177 96.7334 134.936 96.8428C134.726 96.9339 134.48 97.0182 134.197 97.0957C133.919 97.1732 133.612 97.2119 133.274 97.2119C132.864 97.2119 132.513 97.1709 132.222 97.0889C131.93 97.0068 131.691 96.877 131.504 96.6992C131.322 96.5215 131.187 96.2891 131.101 96.002C131.019 95.7148 130.978 95.3662 130.978 94.9561ZM132.639 94.9561C132.639 95.1566 132.664 95.3161 132.714 95.4346C132.764 95.5531 132.837 95.6442 132.933 95.708C133.028 95.7673 133.145 95.806 133.281 95.8242C133.423 95.8424 133.582 95.8516 133.76 95.8516C133.992 95.8516 134.211 95.8311 134.416 95.79C134.626 95.7445 134.81 95.6966 134.97 95.6465C135.152 95.5872 135.323 95.5189 135.482 95.4414V94.1904C135.337 94.1631 135.179 94.138 135.011 94.1152C134.865 94.0924 134.699 94.0742 134.512 94.0605C134.329 94.0423 134.136 94.0332 133.931 94.0332C133.703 94.0332 133.507 94.0446 133.343 94.0674C133.183 94.0856 133.051 94.1289 132.946 94.1973C132.841 94.2611 132.764 94.3545 132.714 94.4775C132.664 94.596 132.639 94.7555 132.639 94.9561ZM139.406 89.7881H140.808L140.903 90.5742C141.259 90.3418 141.658 90.1504 142.1 90C142.542 89.8496 143.038 89.7607 143.59 89.7334L143.576 91.415C143.007 91.4242 142.512 91.4538 142.093 91.5039C141.678 91.5495 141.323 91.6315 141.026 91.75V97H139.406V89.7881ZM145.49 91.1348H144.424V89.7881H145.49V88.2637L147.11 87.9014V89.7881H148.929V91.1348H147.11V95.0107C147.11 95.1794 147.122 95.3184 147.145 95.4277C147.172 95.5371 147.217 95.626 147.281 95.6943C147.35 95.7581 147.443 95.8037 147.562 95.8311C147.685 95.8538 147.842 95.8652 148.033 95.8652C148.211 95.8652 148.37 95.863 148.512 95.8584C148.658 95.8493 148.781 95.8402 148.881 95.8311C148.999 95.8219 149.104 95.8105 149.195 95.7969V96.877C149.036 96.9408 148.865 96.9977 148.683 97.0479C148.523 97.0889 148.336 97.1253 148.122 97.1572C147.908 97.1937 147.673 97.2119 147.418 97.2119C147.062 97.2119 146.762 97.1777 146.516 97.1094C146.274 97.041 146.076 96.9385 145.921 96.8018C145.771 96.6605 145.661 96.485 145.593 96.2754C145.524 96.0612 145.49 95.8128 145.49 95.5303V91.1348ZM150.398 93.3154C150.398 92.5635 150.496 91.946 150.692 91.4629C150.888 90.9798 151.148 90.5993 151.472 90.3213C151.795 90.0433 152.164 89.8519 152.579 89.7471C152.994 89.6377 153.42 89.583 153.857 89.583C154.409 89.583 154.865 89.6582 155.225 89.8086C155.589 89.959 155.879 90.1709 156.093 90.4443C156.307 90.7132 156.457 91.0368 156.544 91.415C156.631 91.7933 156.674 92.2103 156.674 92.666C156.674 92.8802 156.665 93.1012 156.646 93.3291C156.633 93.557 156.612 93.7917 156.585 94.0332H152.066C152.071 94.3568 152.105 94.6302 152.169 94.8535C152.237 95.0723 152.347 95.2523 152.497 95.3936C152.652 95.5303 152.855 95.6305 153.105 95.6943C153.361 95.7536 153.677 95.7832 154.056 95.7832C154.375 95.7832 154.673 95.7764 154.951 95.7627C155.229 95.7445 155.473 95.724 155.683 95.7012C155.929 95.6784 156.152 95.6488 156.353 95.6123V96.7471C156.12 96.8337 155.867 96.9111 155.594 96.9795C155.361 97.0387 155.09 97.0911 154.78 97.1367C154.47 97.1868 154.14 97.2119 153.789 97.2119C153.251 97.2119 152.773 97.1436 152.354 97.0068C151.934 96.8747 151.579 96.6559 151.287 96.3506C151 96.0407 150.779 95.6374 150.624 95.1406C150.474 94.6439 150.398 94.0355 150.398 93.3154ZM155.177 92.8164V92.5566C155.177 92.2832 155.159 92.0462 155.122 91.8457C155.09 91.6406 155.022 91.472 154.917 91.3398C154.812 91.2077 154.664 91.1097 154.473 91.0459C154.281 90.9821 154.026 90.9502 153.707 90.9502C153.365 90.9502 153.085 90.9912 152.866 91.0732C152.652 91.1507 152.483 91.2692 152.36 91.4287C152.242 91.5837 152.16 91.7773 152.114 92.0098C152.073 92.2422 152.053 92.5111 152.053 92.8164H155.177ZM163.879 97.2119C163.473 97.2119 163.116 97.1458 162.806 97.0137C162.5 96.8815 162.245 96.6673 162.04 96.3711C161.835 96.0703 161.678 95.6784 161.568 95.1953C161.464 94.7122 161.409 94.1221 161.404 93.4248C161.395 92.7321 161.445 92.1419 161.555 91.6543C161.669 91.1667 161.83 90.7702 162.04 90.4648C162.254 90.1549 162.514 89.9316 162.819 89.7949C163.129 89.6536 163.478 89.583 163.865 89.583C164.221 89.583 164.544 89.6104 164.836 89.665C165.128 89.7197 165.381 89.779 165.595 89.8428C165.845 89.9202 166.066 90.0046 166.258 90.0957V86.377H167.885V97H166.483L166.388 96.4258C166.183 96.5716 165.95 96.7038 165.69 96.8223C165.467 96.9225 165.201 97.0114 164.891 97.0889C164.585 97.1709 164.248 97.2119 163.879 97.2119ZM164.453 95.7559C164.69 95.7559 164.916 95.7399 165.13 95.708C165.349 95.6715 165.542 95.6305 165.711 95.585C165.907 95.5348 166.089 95.4756 166.258 95.4072V91.2852C166.071 91.2396 165.873 91.1963 165.663 91.1553C165.485 91.1234 165.28 91.0938 165.048 91.0664C164.82 91.0391 164.585 91.0254 164.344 91.0254C164.093 91.0254 163.888 91.0687 163.729 91.1553C163.569 91.2373 163.444 91.3763 163.353 91.5723C163.261 91.7682 163.198 92.0257 163.161 92.3447C163.129 92.6637 163.113 93.0579 163.113 93.5273C163.113 93.9329 163.129 94.277 163.161 94.5596C163.193 94.8421 163.257 95.0723 163.353 95.25C163.448 95.4277 163.583 95.5576 163.756 95.6396C163.934 95.7171 164.166 95.7559 164.453 95.7559ZM169.874 94.9561C169.874 94.5459 169.933 94.1995 170.052 93.917C170.175 93.6344 170.339 93.4066 170.544 93.2334C170.754 93.0602 170.997 92.9349 171.275 92.8574C171.558 92.7799 171.861 92.7412 172.185 92.7412C172.513 92.7412 172.809 92.7594 173.073 92.7959C173.342 92.8324 173.575 92.8734 173.771 92.9189C173.994 92.9691 174.197 93.026 174.379 93.0898V92.4199C174.379 92.2513 174.372 92.11 174.358 91.9961C174.349 91.8776 174.331 91.7751 174.304 91.6885C174.276 91.6019 174.238 91.529 174.188 91.4697C174.142 91.4105 174.085 91.3535 174.017 91.2988C173.871 91.194 173.67 91.1188 173.415 91.0732C173.16 91.0277 172.827 91.0049 172.417 91.0049C172.157 91.0049 171.904 91.014 171.658 91.0322C171.417 91.0459 171.2 91.0641 171.009 91.0869C170.785 91.1097 170.574 91.1348 170.373 91.1621V90.0273C170.555 89.9544 170.781 89.8883 171.05 89.8291C171.278 89.779 171.562 89.7334 171.904 89.6924C172.246 89.6468 172.652 89.624 173.121 89.624C173.436 89.624 173.714 89.6377 173.955 89.665C174.201 89.6878 174.418 89.7288 174.604 89.7881C174.791 89.8473 174.955 89.9248 175.097 90.0205C175.243 90.1162 175.372 90.2347 175.486 90.376C175.582 90.4945 175.662 90.6198 175.726 90.752C175.789 90.8841 175.842 91.0391 175.883 91.2168C175.924 91.3945 175.951 91.5996 175.965 91.832C175.983 92.0599 175.992 92.3265 175.992 92.6318V97H174.618L174.495 96.4668C174.295 96.6081 174.074 96.7334 173.832 96.8428C173.622 96.9339 173.376 97.0182 173.094 97.0957C172.816 97.1732 172.508 97.2119 172.171 97.2119C171.761 97.2119 171.41 97.1709 171.118 97.0889C170.826 97.0068 170.587 96.877 170.4 96.6992C170.218 96.5215 170.084 96.2891 169.997 96.002C169.915 95.7148 169.874 95.3662 169.874 94.9561ZM171.535 94.9561C171.535 95.1566 171.56 95.3161 171.61 95.4346C171.66 95.5531 171.733 95.6442 171.829 95.708C171.925 95.7673 172.041 95.806 172.178 95.8242C172.319 95.8424 172.479 95.8516 172.656 95.8516C172.889 95.8516 173.107 95.8311 173.312 95.79C173.522 95.7445 173.707 95.6966 173.866 95.6465C174.049 95.5872 174.219 95.5189 174.379 95.4414V94.1904C174.233 94.1631 174.076 94.138 173.907 94.1152C173.761 94.0924 173.595 94.0742 173.408 94.0605C173.226 94.0423 173.032 94.0332 172.827 94.0332C172.599 94.0332 172.403 94.0446 172.239 94.0674C172.08 94.0856 171.948 94.1289 171.843 94.1973C171.738 94.2611 171.66 94.3545 171.61 94.4775C171.56 94.596 171.535 94.7555 171.535 94.9561Z" fill="black"/>
<rect x="363" y="42" width="251" height="162" fill="#F2656E"/>
<path d="M465 100V149.561L512 124.781L465 100Z" fill="#B54345"/>
<path fill-rule="evenodd" clip-rule="evenodd" d="M59.3728 149.351C58.9995 149.544 58.6123 149.754 58.2165 149.978C57.8109 150.206 57.4335 150.428 57.085 150.638C56.744 150.844 56.3932 151.068 56.0349 151.302C55.6973 151.523 55.3604 151.754 55.0188 151.994L54.5128 152.351L54.9565 152.784C59.2153 156.955 63.4574 161.145 67.6972 165.336L71.2053 168.809C72.2987 169.894 73.4117 171.001 74.5542 172.141L75.4416 173.021L75.4758 173.054C76.3799 173.948 77.3004 174.857 78.1425 175.787C78.1733 175.82 78.2041 175.854 78.2351 175.889C78.288 175.948 78.3415 176.008 78.3964 176.062C78.7224 176.408 79.1206 176.797 79.5562 177.148C80.0091 177.515 80.5002 177.835 80.9987 178.021C81.3628 178.157 81.7228 178.222 82.0788 178.184C82.4579 178.145 82.8145 177.996 83.1405 177.707L83.1786 177.675C83.6217 177.271 83.7163 176.687 83.6315 176.077C83.5254 175.324 83.1307 174.511 82.8543 174.063L82.7914 173.98L59.7346 149.163L59.3728 149.351ZM65.7827 146.728C65.392 146.847 64.9905 146.979 64.5773 147.121C64.1757 147.258 63.7776 147.403 63.387 147.552C63.0494 147.68 62.7044 147.818 62.3518 147.963C62.0108 148.104 61.6733 148.25 61.3421 148.398L60.6272 148.72L61.2019 149.25C64.6329 152.435 68.0297 155.602 71.4233 158.765C71.7695 159.088 72.1158 159.411 72.462 159.734C75.6465 162.704 78.8303 165.675 82.0125 168.65L82.9755 169.544C83.8208 170.327 84.6684 171.118 85.5777 172.009C85.5867 172.014 85.6033 172.031 85.6132 172.042L85.6158 172.044C85.9511 172.366 86.4196 172.684 86.9141 172.825C87.4905 172.989 88.0929 172.931 88.5989 172.437C88.6087 172.427 88.6295 172.403 88.6387 172.398C89.143 171.903 89.2019 171.311 89.0334 170.744C88.8891 170.257 88.5631 169.799 88.2371 169.468L88.2031 169.433C87.6365 168.876 87.1206 168.344 86.6071 167.814L86.0838 167.275C84.6759 165.83 83.2715 164.382 81.8665 162.933C79.4731 160.465 77.0826 157.991 74.695 155.517C71.9064 152.63 69.1183 149.745 66.3251 146.866L66.0971 146.631L65.7827 146.728ZM74.234 145.13C73.6922 145.171 73.1521 145.223 72.6195 145.287C72.0979 145.349 71.5619 145.424 71.012 145.519C70.54 145.595 70.0946 145.675 69.6739 145.757C69.2285 145.844 68.7848 145.939 68.3474 146.041L67.3729 146.268L68.1103 146.931C70.4056 148.997 72.6438 151.099 74.8785 153.201C75.9626 154.222 77.0486 155.242 78.0837 156.205C80.0247 158.011 82.0032 159.849 84.0066 161.614C86.0272 163.395 88.0969 165.125 90.2272 166.723L90.2728 166.752C90.7257 167.024 91.5635 167.422 92.3384 167.53C92.9604 167.615 93.5576 167.522 93.9742 167.079L94.0065 167.044C94.2985 166.723 94.4502 166.374 94.49 166.006C94.5299 165.656 94.4652 165.303 94.325 164.942C94.1375 164.455 93.8092 163.971 93.4382 163.527C93.0799 163.097 92.6852 162.708 92.335 162.39C92.2834 162.339 92.2263 162.29 92.1695 162.241C92.1304 162.207 92.0915 162.173 92.0545 162.139C91.4344 161.597 90.8351 161.019 90.2449 160.449L90.2231 160.428L87.5568 157.859L85.396 155.763C82.9374 153.378 81.0079 151.493 79.09 149.618L74.4728 145.113L74.234 145.13ZM113.538 190.056C114.478 187.271 115.092 184.429 115.293 181.557C115.479 178.876 115.303 176.168 114.687 173.46C113.908 170.041 112.498 166.878 110.661 163.962C108.826 161.051 106.573 158.389 104.099 155.962C102.431 154.325 100.618 152.846 98.6785 151.54C96.7513 150.244 94.7001 149.12 92.5508 148.19C90.5797 147.338 88.5383 146.652 86.4519 146.14C84.3608 145.627 82.2248 145.288 80.0697 145.128L78.3907 145L79.6929 146.049L93.6142 157.247C96.0993 159.057 100.064 162.388 102.778 165.956C104.581 168.324 105.821 170.781 105.661 172.913L105.508 174.808C105.276 177.548 105.11 179.567 105.553 181.451C106.002 183.357 107.063 185.063 109.281 187.122L113.277 190.832L113.538 190.056ZM49.4998 186.118C49.1057 184.801 48.5351 183.521 47.8548 182.297C47.178 181.08 46.3967 179.922 45.5762 178.833C44.8279 177.848 44.0201 176.89 43.173 175.961C42.326 175.033 41.4443 174.144 40.5425 173.294L39.8582 172.649L39.6551 173.558C38.8704 177.089 38.823 180.576 39.3406 184.003C39.8559 187.418 40.9325 190.77 42.3958 194.038C44.0143 197.651 46.0805 201.135 48.3775 204.47C50.6711 207.799 53.1937 210.98 55.7314 213.995C57.4866 216.079 59.3157 218.153 61.1805 220.219C63.0194 222.256 64.8918 224.286 66.7647 226.313L67.4675 227.074L67.522 227.133C70.6619 230.532 73.8154 233.947 76.7739 237.506L77.1853 238L77.5967 237.506C80.5605 233.941 83.7205 230.519 86.8647 227.115L86.8783 227.1L87.5966 226.322L87.6907 226.22C89.5318 224.225 91.3744 222.228 93.182 220.223C95.0491 218.155 96.88 216.079 98.6352 213.994C99.634 212.805 100.633 211.588 101.626 210.334C102.595 209.111 103.549 207.857 104.488 206.57C105.358 205.376 106.203 204.165 107.011 202.937C107.824 201.704 108.601 200.448 109.334 199.172L109.526 198.839L106.148 195.325L103.605 192.689C101.506 190.513 99.7684 189.474 97.8257 189.032C95.9037 188.598 93.849 188.761 91.0552 188.988L89.124 189.138C86.9521 189.295 84.448 188.078 82.0338 186.309C78.3964 183.646 74.9996 179.752 73.1613 177.318L73.148 177.303C68.4102 171.49 63.703 165.898 58.9985 160.31L58.7548 160.02C56.7873 157.684 54.8013 155.324 53.5105 153.785L53.1689 153.38L52.7598 153.717C52.5458 153.892 52.3542 154.051 52.1875 154.196C52.0149 154.343 51.8274 154.507 51.6243 154.687C51.3722 154.913 51.1431 155.123 50.9342 155.316C50.6878 155.547 50.4628 155.761 50.2637 155.958C49.5321 156.678 48.8138 157.422 48.1179 158.192C47.4226 158.96 46.7533 159.749 46.1163 160.556C45.5647 161.258 45.0344 161.977 44.5284 162.714C44.0374 163.428 43.5688 164.163 43.124 164.922L42.9359 165.24L43.1788 165.519C44.3634 166.877 45.616 168.209 46.935 169.472C48.2598 170.739 49.6492 171.936 51.105 173.017C52.2365 173.86 53.4534 174.663 54.7309 175.355C56.0141 176.051 57.3597 176.635 58.7491 177.035L58.9441 177.054C60.5401 176.912 62.1799 177.041 63.7943 177.355C65.6234 177.712 67.4127 178.313 69.0675 179.042C70.8966 179.848 72.657 180.848 74.3176 181.992C76.0596 183.194 77.6931 184.556 79.1869 186.021C81.2791 188.074 83.2144 190.457 84.763 193.039C86.1692 195.385 87.2626 197.898 87.873 200.478C88.4021 202.706 88.5706 205.1 88.1102 207.316C87.7236 209.172 86.8933 210.907 85.4525 212.321C84.0141 213.735 82.2438 214.551 80.3524 214.929C78.0952 215.381 75.6557 215.216 73.3852 214.699C70.7564 214.101 68.1974 213.028 65.8075 211.646C63.1764 210.127 60.7484 208.227 58.6562 206.173C57.1629 204.706 55.7735 203.104 54.5508 201.395C53.3853 199.766 52.3658 198.04 51.5447 196.244C50.8021 194.622 50.1893 192.864 49.8258 191.068C49.5033 189.484 49.3746 187.876 49.5188 186.309L49.4998 186.118Z" fill="#F89069" fill-opacity="0.1"/>
<path d="M53.992 157H44.072V116.872H53.992V132.168H68.072V116.872H77.992V157H68.072V141.128H53.992V157ZM91.3025 157H80.8705L95.7185 116.872H106.023L120.487 157H110.119L108.007 150.28H93.4145L91.3025 157ZM100.647 126.728C100.305 127.923 99.9212 129.203 99.4945 130.568C99.1105 131.891 98.4492 134.067 97.5105 137.096L95.8465 142.408H105.511L103.847 137.096C103.292 135.475 102.737 133.768 102.183 131.976C101.628 130.141 101.116 128.392 100.647 126.728ZM133.43 145.736V157H123.51V116.872H138.166C144.352 116.872 148.747 117.96 151.35 120.136C153.952 122.269 155.254 125.875 155.254 130.952C155.254 135.987 153.867 139.72 151.094 142.152C148.363 144.541 144.118 145.736 138.358 145.736H133.43ZM145.206 130.952C145.206 129.075 144.694 127.752 143.67 126.984C142.646 126.216 140.811 125.832 138.166 125.832H133.43V137.032H138.166C140.854 137.032 142.688 136.584 143.67 135.688C144.694 134.792 145.206 133.213 145.206 130.952ZM173.401 157H159.385V116.872H173.401C177.497 116.872 180.739 117.213 183.129 117.896C185.561 118.579 187.502 119.667 188.953 121.16C190.403 122.653 191.449 124.68 192.089 127.24C192.771 129.757 193.113 132.979 193.113 136.904C193.113 143.859 191.555 148.957 188.441 152.2C185.326 155.4 180.313 157 173.401 157ZM181.273 128.392C180.675 127.496 179.801 126.856 178.649 126.472C177.497 126.045 175.747 125.832 173.401 125.832H169.305V147.72H173.401C175.705 147.72 177.433 147.528 178.585 147.144C179.737 146.76 180.633 146.141 181.273 145.288C181.827 144.477 182.233 143.411 182.489 142.088C182.745 140.723 182.873 138.995 182.873 136.904C182.873 134.771 182.745 133.043 182.489 131.72C182.233 130.355 181.827 129.245 181.273 128.392ZM207.805 116.872V157H197.885V116.872H207.805ZM248.571 116.872V157H239.099L223.227 133.832V157H213.947V116.872H223.355L239.291 140.936V116.872H248.571ZM282.345 147.72V157H254.697V116.872H281.769V125.832H264.617V132.488H279.401V140.808H264.617V147.72H282.345Z" fill="#F35357"/>
<path fill-rule="evenodd" clip-rule="evenodd" d="M171.373 25.3506C170.999 25.5443 170.612 25.7544 170.217 25.9775C169.811 26.2063 169.434 26.4277 169.085 26.6378C168.744 26.8445 168.393 27.0676 168.035 27.302C167.697 27.5234 167.36 27.7539 167.019 27.994L166.513 28.3513L166.956 28.7845C171.215 32.9551 175.457 37.1454 179.697 41.3364L183.205 44.8093C184.299 45.8937 185.412 47.0008 186.554 48.1407L187.442 49.0207L187.476 49.0544C188.38 49.9479 189.3 50.8575 190.143 51.7869C190.173 51.8198 190.204 51.8543 190.235 51.889C190.288 51.9482 190.342 52.0082 190.396 52.0621C190.722 52.4081 191.121 52.7965 191.556 53.1482C192.009 53.5146 192.5 53.8345 192.999 54.0208C193.363 54.1567 193.723 54.2218 194.079 54.1845C194.458 54.1454 194.814 53.9965 195.141 53.7065L195.179 53.6748C195.622 53.2711 195.716 52.6873 195.632 52.0768C195.525 51.3237 195.131 50.5105 194.854 50.0626L194.791 49.9805L171.735 25.1626L171.373 25.3506ZM177.783 22.7277C177.392 22.8472 176.99 22.9791 176.577 23.1207C176.176 23.2583 175.778 23.4032 175.387 23.5522C175.049 23.6801 174.704 23.8178 174.352 23.9633C174.011 24.1043 173.673 24.2498 173.342 24.3982L172.627 24.7204L173.202 25.2504C176.633 28.4352 180.03 31.6018 183.423 34.7654C183.77 35.0882 184.116 35.411 184.462 35.7337C187.646 38.7044 190.83 41.675 194.012 44.6496L194.975 45.5443C195.821 46.3275 196.668 47.118 197.578 48.0087C197.587 48.0139 197.603 48.0313 197.613 48.0417L197.616 48.0444C197.951 48.3661 198.42 48.6843 198.914 48.8253C199.49 48.989 200.093 48.9312 200.599 48.4368C200.609 48.4272 200.629 48.4029 200.639 48.3978C201.143 47.9029 201.202 47.3111 201.033 46.7437C200.889 46.2567 200.563 45.7992 200.237 45.4679L200.203 45.4328C199.636 44.8761 199.121 44.3444 198.607 43.8144L198.084 43.2747C196.676 41.8296 195.271 40.3822 193.866 38.9332C191.473 36.4648 189.083 33.9908 186.695 31.5167C183.906 28.6299 181.118 25.7453 178.325 22.8659L178.097 22.6314L177.783 22.7277ZM186.234 21.1302C185.692 21.171 185.152 21.2231 184.62 21.2865C184.098 21.3494 183.562 21.4241 183.012 21.5187C182.54 21.5951 182.095 21.675 181.674 21.7571C181.229 21.8443 180.785 21.9394 180.347 22.0414L179.373 22.2684L180.11 22.931C182.406 24.9973 184.644 27.0993 186.878 29.2013C187.963 30.2222 189.049 31.2415 190.084 32.2053C192.025 34.0112 194.003 35.8493 196.007 37.6143C198.027 39.3947 200.097 41.1246 202.227 42.7226L202.273 42.7521C202.726 43.0239 203.564 43.422 204.338 43.5296C204.96 43.6151 205.558 43.5222 205.974 43.0794L206.007 43.0443C206.298 42.7226 206.45 42.3744 206.49 42.0063C206.53 41.6563 206.465 41.303 206.325 40.9423C206.137 40.4547 205.809 39.9711 205.438 39.5266C205.08 39.0968 204.685 38.7084 204.335 38.3901C204.283 38.3395 204.226 38.29 204.17 38.2408C204.13 38.2069 204.091 38.1732 204.055 38.1393C203.434 37.5972 202.835 37.0187 202.245 36.449L202.223 36.428L199.557 33.8588L197.396 31.7625C194.937 29.3779 193.008 27.4934 191.09 25.6185L186.473 21.1133L186.234 21.1302ZM225.538 66.0557C226.478 63.2708 227.092 60.4287 227.293 57.5566C227.479 54.8765 227.303 52.168 226.687 49.4595C225.908 46.041 224.498 42.8784 222.661 39.9621C220.826 37.0509 218.573 34.3889 216.099 31.9618C214.431 30.3247 212.618 28.8457 210.678 27.5398C208.751 26.2436 206.7 25.1202 204.551 24.1898C202.58 23.3381 200.538 22.6518 198.452 22.1399C196.361 21.6269 194.225 21.2882 192.07 21.128L190.391 21L191.693 22.0493L205.614 33.2467C208.099 35.0571 212.064 38.3884 214.778 41.9559C216.581 44.324 217.821 46.7811 217.661 48.9131L217.508 50.8084C217.276 53.548 217.11 55.5667 217.553 57.4507C218.002 59.3573 219.063 61.0629 221.281 63.1225L225.277 66.8315L225.538 66.0557ZM161.5 62.1179C161.106 60.8008 160.535 59.521 159.855 58.2973C159.178 57.0804 158.397 55.9218 157.576 54.8334C156.828 53.8475 156.02 52.89 155.173 51.9613C154.326 51.0332 153.444 50.1441 152.542 49.2942L151.858 48.6486L151.655 49.5581C150.87 53.0887 150.823 56.5764 151.341 60.0029C151.856 63.418 152.933 66.7698 154.396 70.0383C156.014 73.6505 158.081 77.1348 160.378 80.4695C162.671 83.7992 165.194 86.9799 167.731 89.9953C169.487 92.0786 171.316 94.1528 173.181 96.2191C175.019 98.256 176.892 100.286 178.765 102.313L179.468 103.074L179.522 103.133C182.662 106.532 185.815 109.947 188.774 113.506L189.185 114L189.597 113.506C192.56 109.941 195.72 106.519 198.865 103.115L198.878 103.1L199.597 102.322L199.691 102.22C201.532 100.225 203.374 98.2276 205.182 96.2231C207.049 94.1545 208.88 92.0786 210.635 89.9936C211.634 88.805 212.633 87.5881 213.626 86.3344C214.595 85.1107 215.549 83.8569 216.488 82.5698C217.358 81.3756 218.203 80.1649 219.011 78.9372C219.824 77.7039 220.601 76.4479 221.334 75.1721L221.526 74.8391L218.148 71.3254L215.605 68.6894C213.506 66.5133 211.768 65.4736 209.826 65.0325C207.904 64.5976 205.849 64.7612 203.055 64.9877L201.124 65.1384C198.952 65.2947 196.448 64.0783 194.034 62.3093C190.396 59.6456 187 55.7525 185.161 53.3175L185.148 53.3028C180.41 47.4896 175.703 41.8981 170.999 36.3098L170.755 36.0203C168.787 33.6839 166.801 31.3236 165.511 29.7851L165.169 29.3796L164.76 29.7166C164.546 29.8916 164.354 30.0512 164.187 30.1962C164.015 30.3434 163.827 30.5071 163.624 30.6872C163.372 30.9125 163.143 31.1226 162.934 31.3163C162.688 31.5468 162.463 31.7608 162.264 31.9579C161.532 32.6776 160.814 33.4217 160.118 34.1918C159.423 34.9602 158.753 35.749 158.116 36.556C157.565 37.2576 157.034 37.9773 156.528 38.714C156.037 39.4281 155.569 40.1631 155.124 40.9219L154.936 41.2396L155.179 41.5187C156.363 42.8767 157.616 44.2085 158.935 45.4719C160.26 46.7386 161.649 47.9363 163.105 49.0167C164.237 49.8599 165.453 50.6634 166.731 51.3554C168.014 52.0508 169.36 52.6352 170.749 53.0349L170.944 53.0536C172.54 52.9121 174.18 53.0406 175.794 53.3549C177.623 53.7122 179.413 54.313 181.068 55.0418C182.897 55.8476 184.657 56.8482 186.318 57.9921C188.06 59.1937 189.693 60.5556 191.187 62.0211C193.279 64.0744 195.214 66.4572 196.763 69.0394C198.169 71.3849 199.263 73.898 199.873 76.4779C200.402 78.7062 200.571 81.1003 200.11 83.3156C199.724 85.1718 198.893 86.9074 197.453 88.3214C196.014 89.7348 194.244 90.5514 192.352 90.9291C190.095 91.381 187.656 91.2156 185.385 90.6986C182.756 90.1012 180.197 89.0281 177.807 87.6458C175.176 86.1266 172.748 84.2273 170.656 82.1734C169.163 80.7057 167.773 79.1042 166.551 77.3947C165.385 75.7655 164.366 74.0395 163.545 72.2445C162.802 70.6221 162.189 68.8644 161.826 67.0676C161.503 65.4844 161.375 63.8756 161.519 62.3093L161.5 62.1179Z" fill="#F89069" fill-opacity="0.1"/>
<path fill-rule="evenodd" clip-rule="evenodd" d="M278.373 161.351C277.999 161.544 277.612 161.754 277.217 161.978C276.811 162.206 276.434 162.428 276.085 162.638C275.744 162.844 275.393 163.068 275.035 163.302C274.697 163.523 274.36 163.754 274.019 163.994L273.513 164.351L273.956 164.784C278.215 168.955 282.457 173.145 286.697 177.336L290.205 180.809C291.299 181.894 292.412 183.001 293.554 184.141L294.442 185.021L294.476 185.054C295.38 185.948 296.3 186.857 297.143 187.787C297.173 187.82 297.204 187.854 297.235 187.889C297.288 187.948 297.342 188.008 297.396 188.062C297.722 188.408 298.121 188.797 298.556 189.148C299.009 189.515 299.5 189.835 299.999 190.021C300.363 190.157 300.723 190.222 301.079 190.184C301.458 190.145 301.814 189.996 302.141 189.707L302.179 189.675C302.622 189.271 302.716 188.687 302.632 188.077C302.525 187.324 302.131 186.511 301.854 186.063L301.791 185.98L278.735 161.163L278.373 161.351ZM284.783 158.728C284.392 158.847 283.99 158.979 283.577 159.121C283.176 159.258 282.778 159.403 282.387 159.552C282.049 159.68 281.704 159.818 281.352 159.963C281.011 160.104 280.673 160.25 280.342 160.398L279.627 160.72L280.202 161.25C283.633 164.435 287.03 167.602 290.423 170.765C290.77 171.088 291.116 171.411 291.462 171.734C294.646 174.704 297.83 177.675 301.012 180.65L301.975 181.544C302.821 182.327 303.668 183.118 304.578 184.009C304.587 184.014 304.603 184.031 304.613 184.042L304.616 184.044C304.951 184.366 305.42 184.684 305.914 184.825C306.49 184.989 307.093 184.931 307.599 184.437C307.609 184.427 307.629 184.403 307.639 184.398C308.143 183.903 308.202 183.311 308.033 182.744C307.889 182.257 307.563 181.799 307.237 181.468L307.203 181.433C306.636 180.876 306.121 180.344 305.607 179.814L305.084 179.275C303.676 177.83 302.271 176.382 300.866 174.933C298.473 172.465 296.083 169.991 293.695 167.517C290.906 164.63 288.118 161.745 285.325 158.866L285.097 158.631L284.783 158.728ZM293.234 157.13C292.692 157.171 292.152 157.223 291.62 157.287C291.098 157.349 290.562 157.424 290.012 157.519C289.54 157.595 289.095 157.675 288.674 157.757C288.229 157.844 287.785 157.939 287.347 158.041L286.373 158.268L287.11 158.931C289.406 160.997 291.644 163.099 293.878 165.201C294.963 166.222 296.049 167.242 297.084 168.205C299.025 170.011 301.003 171.849 303.007 173.614C305.027 175.395 307.097 177.125 309.227 178.723L309.273 178.752C309.726 179.024 310.564 179.422 311.338 179.53C311.96 179.615 312.558 179.522 312.974 179.079L313.007 179.044C313.298 178.723 313.45 178.374 313.49 178.006C313.53 177.656 313.465 177.303 313.325 176.942C313.137 176.455 312.809 175.971 312.438 175.527C312.08 175.097 311.685 174.708 311.335 174.39C311.283 174.339 311.226 174.29 311.17 174.241C311.13 174.207 311.091 174.173 311.055 174.139C310.434 173.597 309.835 173.019 309.245 172.449L309.223 172.428L306.557 169.859L304.396 167.763C301.937 165.378 300.008 163.493 298.09 161.618L293.473 157.113L293.234 157.13ZM332.538 202.056C333.478 199.271 334.092 196.429 334.293 193.557C334.479 190.876 334.303 188.168 333.687 185.46C332.908 182.041 331.498 178.878 329.661 175.962C327.826 173.051 325.573 170.389 323.099 167.962C321.431 166.325 319.618 164.846 317.678 163.54C315.751 162.244 313.7 161.12 311.551 160.19C309.58 159.338 307.538 158.652 305.452 158.14C303.361 157.627 301.225 157.288 299.07 157.128L297.391 157L298.693 158.049L312.614 169.247C315.099 171.057 319.064 174.388 321.778 177.956C323.581 180.324 324.821 182.781 324.661 184.913L324.508 186.808C324.276 189.548 324.11 191.567 324.553 193.451C325.002 195.357 326.063 197.063 328.281 199.122L332.277 202.832L332.538 202.056ZM268.5 198.118C268.106 196.801 267.535 195.521 266.855 194.297C266.178 193.08 265.397 191.922 264.576 190.833C263.828 189.848 263.02 188.89 262.173 187.961C261.326 187.033 260.444 186.144 259.542 185.294L258.858 184.649L258.655 185.558C257.87 189.089 257.823 192.576 258.341 196.003C258.856 199.418 259.933 202.77 261.396 206.038C263.014 209.651 265.081 213.135 267.378 216.47C269.671 219.799 272.194 222.98 274.731 225.995C276.487 228.079 278.316 230.153 280.181 232.219C282.019 234.256 283.892 236.286 285.765 238.313L286.468 239.074L286.522 239.133C289.662 242.532 292.815 245.947 295.774 249.506L296.185 250L296.597 249.506C299.56 245.941 302.72 242.519 305.865 239.115L305.878 239.1L306.597 238.322L306.691 238.22C308.532 236.225 310.374 234.228 312.182 232.223C314.049 230.155 315.88 228.079 317.635 225.994C318.634 224.805 319.633 223.588 320.626 222.334C321.595 221.111 322.549 219.857 323.488 218.57C324.358 217.376 325.203 216.165 326.011 214.937C326.824 213.704 327.601 212.448 328.334 211.172L328.526 210.839L325.148 207.325L322.605 204.689C320.506 202.513 318.768 201.474 316.826 201.032C314.904 200.598 312.849 200.761 310.055 200.988L308.124 201.138C305.952 201.295 303.448 200.078 301.034 198.309C297.396 195.646 294 191.752 292.161 189.318L292.148 189.303C287.41 183.49 282.703 177.898 277.999 172.31L277.755 172.02C275.787 169.684 273.801 167.324 272.511 165.785L272.169 165.38L271.76 165.717C271.546 165.892 271.354 166.051 271.187 166.196C271.015 166.343 270.827 166.507 270.624 166.687C270.372 166.913 270.143 167.123 269.934 167.316C269.688 167.547 269.463 167.761 269.264 167.958C268.532 168.678 267.814 169.422 267.118 170.192C266.423 170.96 265.753 171.749 265.116 172.556C264.565 173.258 264.034 173.977 263.528 174.714C263.037 175.428 262.569 176.163 262.124 176.922L261.936 177.24L262.179 177.519C263.363 178.877 264.616 180.209 265.935 181.472C267.26 182.739 268.649 183.936 270.105 185.017C271.237 185.86 272.453 186.663 273.731 187.355C275.014 188.051 276.36 188.635 277.749 189.035L277.944 189.054C279.54 188.912 281.18 189.041 282.794 189.355C284.623 189.712 286.413 190.313 288.068 191.042C289.897 191.848 291.657 192.848 293.318 193.992C295.06 195.194 296.693 196.556 298.187 198.021C300.279 200.074 302.214 202.457 303.763 205.039C305.169 207.385 306.263 209.898 306.873 212.478C307.402 214.706 307.571 217.1 307.11 219.316C306.724 221.172 305.893 222.907 304.453 224.321C303.014 225.735 301.244 226.551 299.352 226.929C297.095 227.381 294.656 227.216 292.385 226.699C289.756 226.101 287.197 225.028 284.807 223.646C282.176 222.127 279.748 220.227 277.656 218.173C276.163 216.706 274.773 215.104 273.551 213.395C272.385 211.766 271.366 210.04 270.545 208.244C269.802 206.622 269.189 204.864 268.826 203.068C268.503 201.484 268.375 199.876 268.519 198.309L268.5 198.118Z" fill="#F89069" fill-opacity="0.1"/>
<path fill-rule="evenodd" clip-rule="evenodd" d="M389.373 25.3506C388.999 25.5443 388.612 25.7544 388.217 25.9775C387.811 26.2063 387.434 26.4277 387.085 26.6378C386.744 26.8445 386.393 27.0676 386.035 27.302C385.697 27.5234 385.36 27.7539 385.019 27.994L384.513 28.3513L384.956 28.7845C389.215 32.9551 393.457 37.1454 397.697 41.3364L401.205 44.8093C402.299 45.8937 403.412 47.0008 404.554 48.1407L405.442 49.0207L405.476 49.0544C406.38 49.9479 407.3 50.8575 408.143 51.7869C408.173 51.8198 408.204 51.8543 408.235 51.889C408.288 51.9482 408.342 52.0082 408.396 52.0621C408.722 52.4081 409.121 52.7965 409.556 53.1482C410.009 53.5146 410.5 53.8345 410.999 54.0208C411.363 54.1567 411.723 54.2218 412.079 54.1845C412.458 54.1454 412.814 53.9965 413.141 53.7065L413.179 53.6748C413.622 53.2711 413.716 52.6873 413.632 52.0768C413.525 51.3237 413.131 50.5105 412.854 50.0626L412.791 49.9805L389.735 25.1626L389.373 25.3506ZM395.783 22.7277C395.392 22.8472 394.99 22.9791 394.577 23.1207C394.176 23.2583 393.778 23.4032 393.387 23.5522C393.049 23.6801 392.704 23.8178 392.352 23.9633C392.011 24.1043 391.673 24.2498 391.342 24.3982L390.627 24.7204L391.202 25.2504C394.633 28.4352 398.03 31.6018 401.423 34.7654C401.77 35.0882 402.116 35.411 402.462 35.7337C405.646 38.7044 408.83 41.675 412.012 44.6496L412.975 45.5443C413.821 46.3275 414.668 47.118 415.578 48.0087C415.587 48.0139 415.603 48.0313 415.613 48.0417L415.616 48.0444C415.951 48.3661 416.42 48.6843 416.914 48.8253C417.49 48.989 418.093 48.9312 418.599 48.4368C418.609 48.4272 418.629 48.4029 418.639 48.3978C419.143 47.9029 419.202 47.3111 419.033 46.7437C418.889 46.2567 418.563 45.7992 418.237 45.4679L418.203 45.4328C417.636 44.8761 417.121 44.3444 416.607 43.8144L416.084 43.2747C414.676 41.8296 413.271 40.3822 411.866 38.9332C409.473 36.4648 407.083 33.9908 404.695 31.5167C401.906 28.6299 399.118 25.7453 396.325 22.8659L396.097 22.6314L395.783 22.7277ZM404.234 21.1302C403.692 21.171 403.152 21.2231 402.62 21.2865C402.098 21.3494 401.562 21.4241 401.012 21.5187C400.54 21.5951 400.095 21.675 399.674 21.7571C399.229 21.8443 398.785 21.9394 398.347 22.0414L397.373 22.2684L398.11 22.931C400.406 24.9973 402.644 27.0993 404.878 29.2013C405.963 30.2222 407.049 31.2415 408.084 32.2053C410.025 34.0112 412.003 35.8493 414.007 37.6143C416.027 39.3947 418.097 41.1246 420.227 42.7226L420.273 42.7521C420.726 43.0239 421.564 43.422 422.338 43.5296C422.96 43.6151 423.558 43.5222 423.974 43.0794L424.007 43.0443C424.298 42.7226 424.45 42.3744 424.49 42.0063C424.53 41.6563 424.465 41.303 424.325 40.9423C424.137 40.4547 423.809 39.9711 423.438 39.5266C423.08 39.0968 422.685 38.7084 422.335 38.3901C422.283 38.3395 422.226 38.29 422.17 38.2408C422.13 38.2069 422.091 38.1732 422.055 38.1393C421.434 37.5972 420.835 37.0187 420.245 36.449L420.223 36.428L417.557 33.8588L415.396 31.7625C412.937 29.3779 411.008 27.4934 409.09 25.6185L404.473 21.1133L404.234 21.1302ZM443.538 66.0557C444.478 63.2708 445.092 60.4287 445.293 57.5566C445.479 54.8765 445.303 52.168 444.687 49.4595C443.908 46.041 442.498 42.8784 440.661 39.9621C438.826 37.0509 436.573 34.3889 434.099 31.9618C432.431 30.3247 430.618 28.8457 428.678 27.5398C426.751 26.2436 424.7 25.1202 422.551 24.1898C420.58 23.3381 418.538 22.6518 416.452 22.1399C414.361 21.6269 412.225 21.2882 410.07 21.128L408.391 21L409.693 22.0493L423.614 33.2467C426.099 35.0571 430.064 38.3884 432.778 41.9559C434.581 44.324 435.821 46.7811 435.661 48.9131L435.508 50.8084C435.276 53.548 435.11 55.5667 435.553 57.4507C436.002 59.3573 437.063 61.0629 439.281 63.1225L443.277 66.8315L443.538 66.0557ZM379.5 62.1179C379.106 60.8008 378.535 59.521 377.855 58.2973C377.178 57.0804 376.397 55.9218 375.576 54.8334C374.828 53.8475 374.02 52.89 373.173 51.9613C372.326 51.0332 371.444 50.1441 370.542 49.2942L369.858 48.6486L369.655 49.5581C368.87 53.0887 368.823 56.5764 369.341 60.0029C369.856 63.418 370.933 66.7698 372.396 70.0383C374.014 73.6505 376.081 77.1348 378.378 80.4695C380.671 83.7992 383.194 86.9799 385.731 89.9953C387.487 92.0786 389.316 94.1528 391.181 96.2191C393.019 98.256 394.892 100.286 396.765 102.313L397.468 103.074L397.522 103.133C400.662 106.532 403.815 109.947 406.774 113.506L407.185 114L407.597 113.506C410.56 109.941 413.72 106.519 416.865 103.115L416.878 103.1L417.597 102.322L417.691 102.22C419.532 100.225 421.374 98.2276 423.182 96.2231C425.049 94.1545 426.88 92.0786 428.635 89.9936C429.634 88.805 430.633 87.5881 431.626 86.3344C432.595 85.1107 433.549 83.8569 434.488 82.5698C435.358 81.3756 436.203 80.1649 437.011 78.9372C437.824 77.7039 438.601 76.4479 439.334 75.1721L439.526 74.8391L436.148 71.3254L433.605 68.6894C431.506 66.5133 429.768 65.4736 427.826 65.0325C425.904 64.5976 423.849 64.7612 421.055 64.9877L419.124 65.1384C416.952 65.2947 414.448 64.0783 412.034 62.3093C408.396 59.6456 405 55.7525 403.161 53.3175L403.148 53.3028C398.41 47.4896 393.703 41.8981 388.999 36.3098L388.755 36.0203C386.787 33.6839 384.801 31.3236 383.511 29.7851L383.169 29.3796L382.76 29.7166C382.546 29.8916 382.354 30.0512 382.187 30.1962C382.015 30.3434 381.827 30.5071 381.624 30.6872C381.372 30.9125 381.143 31.1226 380.934 31.3163C380.688 31.5468 380.463 31.7608 380.264 31.9579C379.532 32.6776 378.814 33.4217 378.118 34.1918C377.423 34.9602 376.753 35.749 376.116 36.556C375.565 37.2576 375.034 37.9773 374.528 38.714C374.037 39.4281 373.569 40.1631 373.124 40.9219L372.936 41.2396L373.179 41.5187C374.363 42.8767 375.616 44.2085 376.935 45.4719C378.26 46.7386 379.649 47.9363 381.105 49.0167C382.237 49.8599 383.453 50.6634 384.731 51.3554C386.014 52.0508 387.36 52.6352 388.749 53.0349L388.944 53.0536C390.54 52.9121 392.18 53.0406 393.794 53.3549C395.623 53.7122 397.413 54.313 399.068 55.0418C400.897 55.8476 402.657 56.8482 404.318 57.9921C406.06 59.1937 407.693 60.5556 409.187 62.0211C411.279 64.0744 413.214 66.4572 414.763 69.0394C416.169 71.3849 417.263 73.898 417.873 76.4779C418.402 78.7062 418.571 81.1003 418.11 83.3156C417.724 85.1718 416.893 86.9074 415.453 88.3214C414.014 89.7348 412.244 90.5514 410.352 90.9291C408.095 91.381 405.656 91.2156 403.385 90.6986C400.756 90.1012 398.197 89.0281 395.807 87.6458C393.176 86.1266 390.748 84.2273 388.656 82.1734C387.163 80.7057 385.773 79.1042 384.551 77.3947C383.385 75.7655 382.366 74.0395 381.545 72.2445C380.802 70.6221 380.189 68.8644 379.826 67.0676C379.503 65.4844 379.375 63.8756 379.519 62.3093L379.5 62.1179Z" fill="#F89069" fill-opacity="0.1"/>
<path fill-rule="evenodd" clip-rule="evenodd" d="M513.373 161.351C512.999 161.544 512.612 161.754 512.217 161.978C511.811 162.206 511.434 162.428 511.085 162.638C510.744 162.844 510.393 163.068 510.035 163.302C509.697 163.523 509.36 163.754 509.019 163.994L508.513 164.351L508.956 164.784C513.215 168.955 517.457 173.145 521.697 177.336L525.205 180.809C526.299 181.894 527.412 183.001 528.554 184.141L529.442 185.021L529.476 185.054C530.38 185.948 531.3 186.857 532.143 187.787C532.173 187.82 532.204 187.854 532.235 187.889C532.288 187.948 532.342 188.008 532.396 188.062C532.722 188.408 533.121 188.797 533.556 189.148C534.009 189.515 534.5 189.835 534.999 190.021C535.363 190.157 535.723 190.222 536.079 190.184C536.458 190.145 536.814 189.996 537.141 189.707L537.179 189.675C537.622 189.271 537.716 188.687 537.632 188.077C537.525 187.324 537.131 186.511 536.854 186.063L536.791 185.98L513.735 161.163L513.373 161.351ZM519.783 158.728C519.392 158.847 518.99 158.979 518.577 159.121C518.176 159.258 517.778 159.403 517.387 159.552C517.049 159.68 516.704 159.818 516.352 159.963C516.011 160.104 515.673 160.25 515.342 160.398L514.627 160.72L515.202 161.25C518.633 164.435 522.03 167.602 525.423 170.765C525.77 171.088 526.116 171.411 526.462 171.734C529.646 174.704 532.83 177.675 536.012 180.65L536.975 181.544C537.821 182.327 538.668 183.118 539.578 184.009C539.587 184.014 539.603 184.031 539.613 184.042L539.616 184.044C539.951 184.366 540.42 184.684 540.914 184.825C541.49 184.989 542.093 184.931 542.599 184.437C542.609 184.427 542.629 184.403 542.639 184.398C543.143 183.903 543.202 183.311 543.033 182.744C542.889 182.257 542.563 181.799 542.237 181.468L542.203 181.433C541.636 180.876 541.121 180.344 540.607 179.814L540.084 179.275C538.676 177.83 537.271 176.382 535.866 174.933C533.473 172.465 531.083 169.991 528.695 167.517C525.906 164.63 523.118 161.745 520.325 158.866L520.097 158.631L519.783 158.728ZM528.234 157.13C527.692 157.171 527.152 157.223 526.62 157.287C526.098 157.349 525.562 157.424 525.012 157.519C524.54 157.595 524.095 157.675 523.674 157.757C523.229 157.844 522.785 157.939 522.347 158.041L521.373 158.268L522.11 158.931C524.406 160.997 526.644 163.099 528.878 165.201C529.963 166.222 531.049 167.242 532.084 168.205C534.025 170.011 536.003 171.849 538.007 173.614C540.027 175.395 542.097 177.125 544.227 178.723L544.273 178.752C544.726 179.024 545.564 179.422 546.338 179.53C546.96 179.615 547.558 179.522 547.974 179.079L548.007 179.044C548.298 178.723 548.45 178.374 548.49 178.006C548.53 177.656 548.465 177.303 548.325 176.942C548.137 176.455 547.809 175.971 547.438 175.527C547.08 175.097 546.685 174.708 546.335 174.39C546.283 174.339 546.226 174.29 546.17 174.241C546.13 174.207 546.091 174.173 546.055 174.139C545.434 173.597 544.835 173.019 544.245 172.449L544.223 172.428L541.557 169.859L539.396 167.763C536.937 165.378 535.008 163.493 533.09 161.618L528.473 157.113L528.234 157.13ZM567.538 202.056C568.478 199.271 569.092 196.429 569.293 193.557C569.479 190.876 569.303 188.168 568.687 185.46C567.908 182.041 566.498 178.878 564.661 175.962C562.826 173.051 560.573 170.389 558.099 167.962C556.431 166.325 554.618 164.846 552.678 163.54C550.751 162.244 548.7 161.12 546.551 160.19C544.58 159.338 542.538 158.652 540.452 158.14C538.361 157.627 536.225 157.288 534.07 157.128L532.391 157L533.693 158.049L547.614 169.247C550.099 171.057 554.064 174.388 556.778 177.956C558.581 180.324 559.821 182.781 559.661 184.913L559.508 186.808C559.276 189.548 559.11 191.567 559.553 193.451C560.002 195.357 561.063 197.063 563.281 199.122L567.277 202.832L567.538 202.056ZM503.5 198.118C503.106 196.801 502.535 195.521 501.855 194.297C501.178 193.08 500.397 191.922 499.576 190.833C498.828 189.848 498.02 188.89 497.173 187.961C496.326 187.033 495.444 186.144 494.542 185.294L493.858 184.649L493.655 185.558C492.87 189.089 492.823 192.576 493.341 196.003C493.856 199.418 494.933 202.77 496.396 206.038C498.014 209.651 500.081 213.135 502.378 216.47C504.671 219.799 507.194 222.98 509.731 225.995C511.487 228.079 513.316 230.153 515.181 232.219C517.019 234.256 518.892 236.286 520.765 238.313L521.468 239.074L521.522 239.133C524.662 242.532 527.815 245.947 530.774 249.506L531.185 250L531.597 249.506C534.56 245.941 537.72 242.519 540.865 239.115L540.878 239.1L541.597 238.322L541.691 238.22C543.532 236.225 545.374 234.228 547.182 232.223C549.049 230.155 550.88 228.079 552.635 225.994C553.634 224.805 554.633 223.588 555.626 222.334C556.595 221.111 557.549 219.857 558.488 218.57C559.358 217.376 560.203 216.165 561.011 214.937C561.824 213.704 562.601 212.448 563.334 211.172L563.526 210.839L560.148 207.325L557.605 204.689C555.506 202.513 553.768 201.474 551.826 201.032C549.904 200.598 547.849 200.761 545.055 200.988L543.124 201.138C540.952 201.295 538.448 200.078 536.034 198.309C532.396 195.646 529 191.752 527.161 189.318L527.148 189.303C522.41 183.49 517.703 177.898 512.999 172.31L512.755 172.02C510.787 169.684 508.801 167.324 507.511 165.785L507.169 165.38L506.76 165.717C506.546 165.892 506.354 166.051 506.187 166.196C506.015 166.343 505.827 166.507 505.624 166.687C505.372 166.913 505.143 167.123 504.934 167.316C504.688 167.547 504.463 167.761 504.264 167.958C503.532 168.678 502.814 169.422 502.118 170.192C501.423 170.96 500.753 171.749 500.116 172.556C499.565 173.258 499.034 173.977 498.528 174.714C498.037 175.428 497.569 176.163 497.124 176.922L496.936 177.24L497.179 177.519C498.363 178.877 499.616 180.209 500.935 181.472C502.26 182.739 503.649 183.936 505.105 185.017C506.237 185.86 507.453 186.663 508.731 187.355C510.014 188.051 511.36 188.635 512.749 189.035L512.944 189.054C514.54 188.912 516.18 189.041 517.794 189.355C519.623 189.712 521.413 190.313 523.068 191.042C524.897 191.848 526.657 192.848 528.318 193.992C530.06 195.194 531.693 196.556 533.187 198.021C535.279 200.074 537.214 202.457 538.763 205.039C540.169 207.385 541.263 209.898 541.873 212.478C542.402 214.706 542.571 217.1 542.11 219.316C541.724 221.172 540.893 222.907 539.453 224.321C538.014 225.735 536.244 226.551 534.352 226.929C532.095 227.381 529.656 227.216 527.385 226.699C524.756 226.101 522.197 225.028 519.807 223.646C517.176 222.127 514.748 220.227 512.656 218.173C511.163 216.706 509.773 215.104 508.551 213.395C507.385 211.766 506.366 210.04 505.545 208.244C504.802 206.622 504.189 204.864 503.826 203.068C503.503 201.484 503.375 199.876 503.519 198.309L503.5 198.118Z" fill="#F89069" fill-opacity="0.1"/>
<path fill-rule="evenodd" clip-rule="evenodd" d="M607.373 25.3506C606.999 25.5443 606.612 25.7544 606.217 25.9775C605.811 26.2063 605.434 26.4277 605.085 26.6378C604.744 26.8445 604.393 27.0676 604.035 27.302C603.697 27.5234 603.36 27.7539 603.019 27.994L602.513 28.3513L602.956 28.7845C607.215 32.9551 611.457 37.1454 615.697 41.3364L619.205 44.8093C620.299 45.8937 621.412 47.0008 622.554 48.1407L623.442 49.0207L623.476 49.0544C624.38 49.9479 625.3 50.8575 626.143 51.7869C626.173 51.8198 626.204 51.8543 626.235 51.889C626.288 51.9482 626.342 52.0082 626.396 52.0621C626.722 52.4081 627.121 52.7965 627.556 53.1482C628.009 53.5146 628.5 53.8345 628.999 54.0208C629.363 54.1567 629.723 54.2218 630.079 54.1845C630.458 54.1454 630.814 53.9965 631.141 53.7065L631.179 53.6748C631.622 53.2711 631.716 52.6873 631.632 52.0768C631.525 51.3237 631.131 50.5105 630.854 50.0626L630.791 49.9805L607.735 25.1626L607.373 25.3506ZM613.783 22.7277C613.392 22.8472 612.99 22.9791 612.577 23.1207C612.176 23.2583 611.778 23.4032 611.387 23.5522C611.049 23.6801 610.704 23.8178 610.352 23.9633C610.011 24.1043 609.673 24.2498 609.342 24.3982L608.627 24.7204L609.202 25.2504C612.633 28.4352 616.03 31.6018 619.423 34.7654C619.77 35.0882 620.116 35.411 620.462 35.7337C623.646 38.7044 626.83 41.675 630.012 44.6496L630.975 45.5443C631.821 46.3275 632.668 47.118 633.578 48.0087C633.587 48.0139 633.603 48.0313 633.613 48.0417L633.616 48.0444C633.951 48.3661 634.42 48.6843 634.914 48.8253C635.49 48.989 636.093 48.9312 636.599 48.4368C636.609 48.4272 636.629 48.4029 636.639 48.3978C637.143 47.9029 637.202 47.3111 637.033 46.7437C636.889 46.2567 636.563 45.7992 636.237 45.4679L636.203 45.4328C635.636 44.8761 635.121 44.3444 634.607 43.8144L634.084 43.2747C632.676 41.8296 631.271 40.3822 629.866 38.9332C627.473 36.4648 625.083 33.9908 622.695 31.5167C619.906 28.6299 617.118 25.7453 614.325 22.8659L614.097 22.6314L613.783 22.7277ZM622.234 21.1302C621.692 21.171 621.152 21.2231 620.62 21.2865C620.098 21.3494 619.562 21.4241 619.012 21.5187C618.54 21.5951 618.095 21.675 617.674 21.7571C617.229 21.8443 616.785 21.9394 616.347 22.0414L615.373 22.2684L616.11 22.931C618.406 24.9973 620.644 27.0993 622.878 29.2013C623.963 30.2222 625.049 31.2415 626.084 32.2053C628.025 34.0112 630.003 35.8493 632.007 37.6143C634.027 39.3947 636.097 41.1246 638.227 42.7226L638.273 42.7521C638.726 43.0239 639.564 43.422 640.338 43.5296C640.96 43.6151 641.558 43.5222 641.974 43.0794L642.007 43.0443C642.298 42.7226 642.45 42.3744 642.49 42.0063C642.53 41.6563 642.465 41.303 642.325 40.9423C642.137 40.4547 641.809 39.9711 641.438 39.5266C641.08 39.0968 640.685 38.7084 640.335 38.3901C640.283 38.3395 640.226 38.29 640.17 38.2408C640.13 38.2069 640.091 38.1732 640.055 38.1393C639.434 37.5972 638.835 37.0187 638.245 36.449L638.223 36.428L635.557 33.8588L633.396 31.7625C630.937 29.3779 629.008 27.4934 627.09 25.6185L622.473 21.1133L622.234 21.1302ZM661.538 66.0557C662.478 63.2708 663.092 60.4287 663.293 57.5566C663.479 54.8765 663.303 52.168 662.687 49.4595C661.908 46.041 660.498 42.8784 658.661 39.9621C656.826 37.0509 654.573 34.3889 652.099 31.9618C650.431 30.3247 648.618 28.8457 646.678 27.5398C644.751 26.2436 642.7 25.1202 640.551 24.1898C638.58 23.3381 636.538 22.6518 634.452 22.1399C632.361 21.6269 630.225 21.2882 628.07 21.128L626.391 21L627.693 22.0493L641.614 33.2467C644.099 35.0571 648.064 38.3884 650.778 41.9559C652.581 44.324 653.821 46.7811 653.661 48.9131L653.508 50.8084C653.276 53.548 653.11 55.5667 653.553 57.4507C654.002 59.3573 655.063 61.0629 657.281 63.1225L661.277 66.8315L661.538 66.0557ZM597.5 62.1179C597.106 60.8008 596.535 59.521 595.855 58.2973C595.178 57.0804 594.397 55.9218 593.576 54.8334C592.828 53.8475 592.02 52.89 591.173 51.9613C590.326 51.0332 589.444 50.1441 588.542 49.2942L587.858 48.6486L587.655 49.5581C586.87 53.0887 586.823 56.5764 587.341 60.0029C587.856 63.418 588.933 66.7698 590.396 70.0383C592.014 73.6505 594.081 77.1348 596.378 80.4695C598.671 83.7992 601.194 86.9799 603.731 89.9953C605.487 92.0786 607.316 94.1528 609.181 96.2191C611.019 98.256 612.892 100.286 614.765 102.313L615.468 103.074L615.522 103.133C618.662 106.532 621.815 109.947 624.774 113.506L625.185 114L625.597 113.506C628.56 109.941 631.72 106.519 634.865 103.115L634.878 103.1L635.597 102.322L635.691 102.22C637.532 100.225 639.374 98.2276 641.182 96.2231C643.049 94.1545 644.88 92.0786 646.635 89.9936C647.634 88.805 648.633 87.5881 649.626 86.3344C650.595 85.1107 651.549 83.8569 652.488 82.5698C653.358 81.3756 654.203 80.1649 655.011 78.9372C655.824 77.7039 656.601 76.4479 657.334 75.1721L657.526 74.8391L654.148 71.3254L651.605 68.6894C649.506 66.5133 647.768 65.4736 645.826 65.0325C643.904 64.5976 641.849 64.7612 639.055 64.9877L637.124 65.1384C634.952 65.2947 632.448 64.0783 630.034 62.3093C626.396 59.6456 623 55.7525 621.161 53.3175L621.148 53.3028C616.41 47.4896 611.703 41.8981 606.999 36.3098L606.755 36.0203C604.787 33.6839 602.801 31.3236 601.511 29.7851L601.169 29.3796L600.76 29.7166C600.546 29.8916 600.354 30.0512 600.187 30.1962C600.015 30.3434 599.827 30.5071 599.624 30.6872C599.372 30.9125 599.143 31.1226 598.934 31.3163C598.688 31.5468 598.463 31.7608 598.264 31.9579C597.532 32.6776 596.814 33.4217 596.118 34.1918C595.423 34.9602 594.753 35.749 594.116 36.556C593.565 37.2576 593.034 37.9773 592.528 38.714C592.037 39.4281 591.569 40.1631 591.124 40.9219L590.936 41.2396L591.179 41.5187C592.363 42.8767 593.616 44.2085 594.935 45.4719C596.26 46.7386 597.649 47.9363 599.105 49.0167C600.237 49.8599 601.453 50.6634 602.731 51.3554C604.014 52.0508 605.36 52.6352 606.749 53.0349L606.944 53.0536C608.54 52.9121 610.18 53.0406 611.794 53.3549C613.623 53.7122 615.413 54.313 617.068 55.0418C618.897 55.8476 620.657 56.8482 622.318 57.9921C624.06 59.1937 625.693 60.5556 627.187 62.0211C629.279 64.0744 631.214 66.4572 632.763 69.0394C634.169 71.3849 635.263 73.898 635.873 76.4779C636.402 78.7062 636.571 81.1003 636.11 83.3156C635.724 85.1718 634.893 86.9074 633.453 88.3214C632.014 89.7348 630.244 90.5514 628.352 90.9291C626.095 91.381 623.656 91.2156 621.385 90.6986C618.756 90.1012 616.197 89.0281 613.807 87.6458C611.176 86.1266 608.748 84.2273 606.656 82.1734C605.163 80.7057 603.773 79.1042 602.551 77.3947C601.385 75.7655 600.366 74.0395 599.545 72.2445C598.802 70.6221 598.189 68.8644 597.826 67.0676C597.503 65.4844 597.375 63.8756 597.519 62.3093L597.5 62.1179Z" fill="#F89069" fill-opacity="0.1"/>
</svg>
