<svg width="675" height="113" viewBox="0 0 675 113" fill="none" xmlns="http://www.w3.org/2000/svg">
<path d="M-8 0H682V113H-8V0Z" fill="#F35357"/>
<path d="M449 61.5625L442.455 67L425 52.5L442.455 38L449 43.4375L438.091 52.5L449 61.5625Z" fill="black" fill-opacity="0.12"/>
<path d="M224 61.5625L230.818 67L249 52.5L230.818 38L224 43.4375L235.364 52.5L224 61.5625Z" fill="black" fill-opacity="0.12"/>
<path d="M199 60.5625L205.818 66L224 51.5L205.818 37L199 42.4375L210.364 51.5L199 60.5625Z" fill="black" fill-opacity="0.12"/>
<path d="M174 60.5625L180.818 66L199 51.5L180.818 37L174 42.4375L185.364 51.5L174 60.5625Z" fill="black" fill-opacity="0.12"/>
<path d="M473 61.5625L466.455 67L449 52.5L466.455 38L473 43.4375L462.091 52.5L473 61.5625Z" fill="black" fill-opacity="0.12"/>
<path d="M497 61.5625L490.455 67L473 52.5L490.455 38L497 43.4375L486.091 52.5L497 61.5625Z" fill="black" fill-opacity="0.12"/>
</svg>
