<svg xmlns="http://www.w3.org/2000/svg" xmlns:xlink="http://www.w3.org/1999/xlink"  zoomAndPan="magnify" viewBox="0 0 1440 809.999993" preserveAspectRatio="xMidYMid meet" version="1.0"><defs><clipPath id="a13e11ef4d"><path d="M 461 144 L 940 144 L 940 728.722656 L 461 728.722656 Z M 461 144 " clip-rule="nonzero"/></clipPath></defs><path fill="#fefcfc" d="M 591.800781 121.40625 C 594.480469 119.867188 597.101562 118.417969 599.628906 117.082031 L 602.078125 115.785156 L 758.171875 286.984375 L 758.597656 287.550781 C 760.46875 290.640625 763.140625 296.25 763.859375 301.445312 C 764.433594 305.65625 763.792969 309.683594 760.792969 312.46875 L 760.535156 312.6875 C 758.328125 314.6875 755.914062 315.714844 753.347656 315.984375 C 750.9375 316.242188 748.5 315.792969 746.035156 314.855469 C 742.660156 313.570312 739.335938 311.363281 736.269531 308.835938 C 733.320312 306.410156 730.625 303.730469 728.417969 301.34375 C 727.828125 300.753906 727.261719 300.058594 726.699219 299.445312 C 720.921875 292.953125 714.609375 286.601562 708.414062 280.363281 L 702.40625 274.292969 C 694.671875 266.429688 687.136719 258.792969 679.734375 251.3125 L 655.984375 227.355469 C 627.28125 198.449219 598.5625 169.539062 569.730469 140.769531 L 566.726562 137.78125 L 570.152344 135.316406 C 572.464844 133.660156 574.746094 132.070312 577.03125 130.542969 C 579.457031 128.925781 581.832031 127.386719 584.140625 125.960938 C 586.5 124.511719 589.054688 122.984375 591.800781 121.40625 M 634.863281 101.699219 C 637.660156 100.722656 640.378906 99.8125 643.023438 98.992188 L 645.152344 98.324219 L 646.695312 99.941406 C 665.605469 119.804688 684.480469 139.703125 703.355469 159.621094 C 719.523438 176.683594 735.707031 193.75 751.910156 210.777344 C 761.421875 220.773438 770.929688 230.757812 780.460938 240.726562 L 784.003906 244.449219 C 787.480469 248.105469 790.972656 251.773438 794.808594 255.613281 L 795.039062 255.855469 C 797.246094 258.140625 799.453125 261.296875 800.429688 264.65625 C 801.570312 268.570312 801.171875 272.652344 797.757812 276.066406 C 797.695312 276.105469 797.554688 276.269531 797.488281 276.335938 C 794.0625 279.746094 789.984375 280.144531 786.082031 279.015625 C 782.734375 278.042969 779.5625 275.847656 777.292969 273.628906 C 777.226562 273.5625 777.101562 273.421875 777.035156 273.382812 C 770.875 267.238281 765.140625 261.785156 759.417969 256.382812 L 752.898438 250.210938 C 731.355469 229.691406 709.800781 209.199219 688.242188 188.707031 C 662.925781 164.660156 637.609375 140.601562 612.011719 116.390625 L 608.121094 112.734375 L 612.960938 110.511719 C 615.203125 109.488281 617.488281 108.484375 619.796875 107.511719 C 622.183594 106.507812 624.519531 105.558594 626.804688 104.675781 C 629.449219 103.648438 632.140625 102.648438 634.863281 101.699219 Z M 689.308594 89.046875 C 692.914062 88.609375 696.570312 88.25 700.238281 87.96875 L 701.855469 87.851562 L 733.113281 118.929688 C 746.097656 131.863281 759.160156 144.863281 775.804688 161.3125 L 790.433594 175.773438 L 808.484375 193.496094 C 812.527344 197.472656 816.632812 201.515625 820.882812 205.300781 C 821.496094 205.875 822.191406 206.441406 822.78125 207.03125 C 825.152344 209.226562 827.824219 211.90625 830.25 214.871094 C 832.761719 217.9375 834.984375 221.273438 836.253906 224.636719 C 837.203125 227.125 837.640625 229.5625 837.371094 231.976562 C 837.101562 234.515625 836.074219 236.917969 834.097656 239.136719 L 833.878906 239.378906 C 831.054688 242.433594 827.015625 243.074219 822.804688 242.484375 C 817.558594 241.742188 811.886719 238.996094 808.820312 237.121094 L 808.511719 236.917969 C 794.089844 225.894531 780.078125 213.960938 766.398438 201.679688 C 752.835938 189.503906 739.441406 176.828125 726.300781 164.367188 C 719.292969 157.71875 711.941406 150.6875 704.601562 143.644531 C 689.472656 129.144531 674.320312 114.644531 658.78125 100.390625 L 653.789062 95.820312 L 660.382812 94.253906 C 663.347656 93.550781 666.351562 92.894531 669.367188 92.292969 C 672.214844 91.726562 675.230469 91.175781 678.425781 90.648438 C 682.148438 89.996094 685.777344 89.480469 689.308594 89.046875 Z M 978.207031 339.246094 C 976.847656 359.058594 972.691406 378.664062 966.328125 397.875 L 964.554688 403.226562 L 937.507812 377.640625 C 922.492188 363.433594 915.308594 351.667969 912.265625 338.515625 C 909.265625 325.519531 910.394531 311.59375 911.960938 292.695312 L 913 279.621094 C 914.078125 264.914062 905.683594 247.964844 893.480469 231.628906 C 875.105469 207.019531 848.261719 184.039062 831.441406 171.550781 L 737.195312 94.308594 L 728.378906 87.070312 L 739.746094 87.957031 C 754.335938 89.058594 768.796875 91.394531 782.953125 94.933594 C 797.078125 98.464844 810.898438 103.199219 824.242188 109.074219 C 838.792969 115.492188 852.675781 123.242188 865.726562 132.183594 C 878.855469 141.191406 891.132812 151.394531 902.425781 162.6875 C 919.171875 179.429688 934.425781 197.792969 946.847656 217.875 C 959.28125 237.992188 968.828125 259.808594 974.101562 283.390625 C 978.273438 302.074219 979.464844 320.757812 978.207031 339.246094 Z M 978.207031 339.246094 " fill-opacity="1" fill-rule="evenodd"/><g clip-path="url(#a13e11ef4d)"><path fill="#fefcfc" d="M 521.652344 344.355469 C 526.257812 352.796875 530.121094 361.625 532.789062 370.710938 L 532.917969 372.03125 C 531.941406 382.835938 532.8125 393.933594 534.996094 404.855469 C 537.457031 417.25 541.601562 429.375 546.632812 440.566406 C 552.1875 452.949219 559.09375 464.855469 566.984375 476.09375 C 575.261719 487.886719 584.664062 498.9375 594.777344 509.058594 C 608.941406 523.226562 625.378906 536.328125 643.191406 546.808594 C 659.371094 556.34375 676.695312 563.746094 694.492188 567.867188 C 709.863281 571.433594 726.378906 572.574219 741.660156 569.457031 C 754.464844 566.851562 766.449219 561.21875 776.1875 551.46875 C 785.941406 541.714844 791.5625 529.742188 794.179688 516.9375 C 797.296875 501.65625 796.15625 485.140625 792.574219 469.769531 C 788.441406 451.972656 781.039062 434.636719 771.519531 418.457031 C 761.035156 400.644531 747.933594 384.210938 733.769531 370.042969 C 723.65625 359.933594 712.597656 350.539062 700.804688 342.25 C 689.5625 334.359375 677.644531 327.457031 665.261719 321.898438 C 654.058594 316.871094 641.945312 312.726562 629.5625 310.261719 C 618.632812 308.09375 607.53125 307.207031 596.726562 308.183594 L 595.40625 308.054688 C 586 305.296875 576.890625 301.265625 568.203125 296.46875 C 559.554688 291.695312 551.316406 286.152344 543.65625 280.339844 C 533.800781 272.882812 524.394531 264.621094 515.425781 255.882812 C 506.496094 247.167969 498.015625 237.980469 489.996094 228.613281 L 488.351562 226.691406 L 489.621094 224.496094 C 492.636719 219.261719 495.808594 214.191406 499.132812 209.265625 C 502.558594 204.183594 506.148438 199.21875 509.882812 194.378906 C 514.195312 188.8125 518.726562 183.371094 523.433594 178.070312 C 528.144531 172.757812 533.007812 167.625 537.960938 162.660156 C 539.304688 161.300781 540.832031 159.824219 542.5 158.234375 C 543.914062 156.898438 545.464844 155.449219 547.171875 153.894531 C 548.546875 152.652344 549.816406 151.523438 550.984375 150.507812 C 552.113281 149.507812 553.410156 148.40625 554.859375 147.199219 L 557.628906 144.875 L 559.941406 147.671875 C 568.679688 158.285156 582.125 174.566406 595.445312 190.683594 C 627.84375 229.898438 660.257812 269.109375 692.886719 309.902344 L 692.976562 310.003906 C 705.421875 326.800781 728.417969 353.65625 753.042969 372.03125 C 769.386719 384.234375 786.339844 392.625 801.042969 391.546875 L 814.117188 390.507812 C 833.03125 388.945312 846.941406 387.816406 859.953125 390.816406 C 873.105469 393.859375 884.871094 401.03125 899.078125 416.042969 L 916.296875 434.226562 L 939.160156 458.464844 L 937.867188 460.761719 C 932.898438 469.5625 927.640625 478.226562 922.132812 486.734375 C 916.667969 495.203125 910.945312 503.554688 905.054688 511.792969 C 898.703125 520.671875 892.238281 529.320312 885.679688 537.765625 C 878.957031 546.414062 872.195312 554.804688 865.433594 563.003906 C 853.550781 577.386719 841.15625 591.707031 828.515625 605.976562 C 816.070312 620.039062 803.378906 634.050781 790.703125 648.050781 L 785.839844 653.414062 C 764.523438 676.933594 743.097656 700.570312 723.003906 725.195312 L 720.21875 728.605469 L 717.433594 725.195312 C 697.289062 700.503906 675.808594 676.820312 654.429688 653.234375 L 649.671875 647.988281 C 636.992188 634 624.316406 620 611.867188 605.949219 C 599.242188 591.695312 586.859375 577.386719 574.976562 563.015625 C 557.796875 542.214844 540.71875 520.273438 525.191406 497.304688 C 509.640625 474.300781 495.652344 450.265625 484.695312 425.347656 C 474.789062 402.800781 467.5 379.679688 464.011719 356.121094 C 460.507812 332.484375 460.828125 308.425781 466.140625 284.070312 L 467.515625 277.796875 L 472.144531 282.25 C 478.253906 288.113281 484.222656 294.246094 489.957031 300.648438 C 495.691406 307.054688 501.160156 313.660156 506.226562 320.460938 C 511.78125 327.96875 517.070312 335.960938 521.652344 344.355469 " fill-opacity="1" fill-rule="evenodd"/></g></svg>