<svg xmlns="http://www.w3.org/2000/svg" xmlns:xlink="http://www.w3.org/1999/xlink" width="940" zoomAndPan="magnify" viewBox="0 0 705 591.000005" height="788" preserveAspectRatio="xMidYMid meet" version="1.0"><defs><clipPath id="d8a4e82a04"><path d="M 152.277344 17 L 552 17 L 552 573 L 152.277344 573 Z M 152.277344 17 " clip-rule="nonzero"/></clipPath><clipPath id="36b5d57601"><path d="M 158.601562 26 L 546 26 L 546 565 L 158.601562 565 Z M 158.601562 26 " clip-rule="nonzero"/></clipPath></defs><path fill="#ffffff" d="M 161.085938 26.652344 L 543.058594 331.75 L 393.589844 349.363281 L 471.640625 500.710938 C 471.90625 501.226562 472.144531 501.75 472.355469 502.285156 C 472.570312 502.820312 472.757812 503.367188 472.914062 503.921875 C 473.074219 504.476562 473.207031 505.039062 473.3125 505.605469 C 473.414062 506.171875 473.492188 506.742188 473.539062 507.320312 C 473.589844 507.894531 473.609375 508.46875 473.601562 509.046875 C 473.589844 509.625 473.554688 510.199219 473.488281 510.773438 C 473.425781 511.34375 473.332031 511.914062 473.210938 512.476562 C 473.089844 513.042969 472.941406 513.597656 472.765625 514.148438 C 472.589844 514.699219 472.390625 515.238281 472.160156 515.769531 C 471.933594 516.296875 471.679688 516.816406 471.398438 517.320312 C 471.117188 517.824219 470.816406 518.316406 470.488281 518.789062 C 470.160156 519.265625 469.808594 519.722656 469.4375 520.164062 C 469.066406 520.605469 468.671875 521.023438 468.257812 521.425781 C 467.84375 521.828125 467.410156 522.210938 466.960938 522.570312 C 466.507812 522.929688 466.039062 523.265625 465.554688 523.578125 C 465.070312 523.890625 464.574219 524.179688 464.058594 524.445312 L 427.53125 543.28125 L 391 562.148438 C 390.484375 562.410156 389.960938 562.648438 389.425781 562.863281 C 388.886719 563.074219 388.339844 563.261719 387.785156 563.417969 C 387.230469 563.578125 386.667969 563.707031 386.101562 563.8125 C 385.53125 563.914062 384.960938 563.992188 384.386719 564.039062 C 383.808594 564.085938 383.234375 564.105469 382.65625 564.09375 C 382.078125 564.085938 381.503906 564.046875 380.929688 563.980469 C 380.355469 563.914062 379.785156 563.820312 379.222656 563.699219 C 378.65625 563.578125 378.101562 563.429688 377.550781 563.25 C 377 563.074219 376.460938 562.871094 375.929688 562.640625 C 375.402344 562.410156 374.882812 562.15625 374.378906 561.875 C 373.875 561.59375 373.386719 561.289062 372.910156 560.960938 C 372.4375 560.632812 371.980469 560.28125 371.539062 559.90625 C 371.097656 559.53125 370.679688 559.136719 370.277344 558.722656 C 369.875 558.308594 369.496094 557.875 369.136719 557.421875 C 368.777344 556.96875 368.441406 556.5 368.128906 556.011719 C 367.816406 555.527344 367.53125 555.027344 367.265625 554.515625 L 289.222656 403.203125 L 188.230469 514.761719 Z M 161.085938 26.652344 " fill-opacity="1" fill-rule="nonzero"/><g clip-path="url(#d8a4e82a04)"><path fill="#ff5757" d="M 382.949219 572.898438 C 380.191406 572.894531 377.5 572.476562 374.875 571.636719 C 373.222656 571.113281 371.636719 570.429688 370.117188 569.589844 C 368.597656 568.753906 367.175781 567.773438 365.851562 566.652344 C 364.527344 565.53125 363.328125 564.292969 362.25 562.933594 C 361.171875 561.574219 360.234375 560.121094 359.445312 558.578125 L 287.222656 418.53125 L 194.726562 520.671875 C 194.144531 521.316406 193.480469 521.863281 192.738281 522.3125 C 191.992188 522.761719 191.199219 523.089844 190.355469 523.304688 C 189.511719 523.519531 188.65625 523.605469 187.789062 523.566406 C 186.921875 523.527344 186.074219 523.359375 185.257812 523.070312 C 184.4375 522.78125 183.675781 522.378906 182.976562 521.863281 C 182.273438 521.347656 181.664062 520.742188 181.144531 520.046875 C 180.621094 519.351562 180.210938 518.59375 179.914062 517.777344 C 179.617188 516.960938 179.445312 516.117188 179.398438 515.25 L 152.277344 27.136719 C 152.226562 26.285156 152.300781 25.445312 152.496094 24.617188 C 152.691406 23.789062 153 23.003906 153.421875 22.261719 C 153.84375 21.523438 154.363281 20.859375 154.980469 20.269531 C 155.59375 19.683594 156.28125 19.191406 157.039062 18.800781 C 157.792969 18.414062 158.589844 18.136719 159.429688 17.980469 C 160.265625 17.820312 161.105469 17.785156 161.953125 17.871094 C 162.800781 17.957031 163.621094 18.160156 164.40625 18.480469 C 165.195312 18.804688 165.921875 19.234375 166.585938 19.765625 L 548.558594 324.867188 C 549.238281 325.410156 549.824219 326.039062 550.316406 326.753906 C 550.808594 327.472656 551.1875 328.242188 551.453125 329.070312 C 551.71875 329.898438 551.855469 330.746094 551.871094 331.617188 C 551.882812 332.484375 551.769531 333.335938 551.53125 334.171875 C 551.292969 335.007812 550.9375 335.789062 550.46875 336.519531 C 549.996094 337.25 549.429688 337.898438 548.769531 338.460938 C 548.105469 339.023438 547.378906 339.480469 546.582031 339.828125 C 545.785156 340.171875 544.953125 340.398438 544.089844 340.5 L 407.242188 356.640625 L 479.460938 496.683594 C 479.855469 497.453125 480.214844 498.242188 480.53125 499.046875 C 480.851562 499.847656 481.128906 500.667969 481.367188 501.5 C 481.605469 502.332031 481.800781 503.171875 481.957031 504.023438 C 482.113281 504.875 482.226562 505.730469 482.296875 506.59375 C 482.367188 507.457031 482.398438 508.320312 482.382812 509.183594 C 482.371094 510.050781 482.316406 510.910156 482.21875 511.769531 C 482.121094 512.628906 481.980469 513.484375 481.796875 514.328125 C 481.617188 515.175781 481.394531 516.007812 481.128906 516.832031 C 480.867188 517.65625 480.5625 518.464844 480.222656 519.261719 C 479.878906 520.054688 479.496094 520.832031 479.078125 521.589844 C 478.660156 522.34375 478.203125 523.078125 477.714844 523.792969 C 477.222656 524.503906 476.699219 525.191406 476.140625 525.851562 C 475.582031 526.511719 474.992188 527.144531 474.371094 527.746094 C 473.75 528.351562 473.105469 528.921875 472.425781 529.460938 C 471.75 530 471.050781 530.503906 470.324219 530.976562 C 469.597656 531.445312 468.851562 531.878906 468.082031 532.277344 L 395.035156 569.949219 C 391.246094 571.914062 387.21875 572.898438 382.949219 572.898438 Z M 289.222656 394.394531 C 289.601562 394.394531 289.980469 394.417969 290.359375 394.472656 C 291.066406 394.5625 291.75 394.738281 292.414062 394.996094 C 293.078125 395.253906 293.699219 395.585938 294.28125 395.996094 C 294.863281 396.40625 295.390625 396.878906 295.855469 397.414062 C 296.324219 397.953125 296.722656 398.535156 297.046875 399.167969 L 375.097656 550.503906 C 375.363281 551.015625 375.675781 551.5 376.035156 551.953125 C 376.398438 552.40625 376.796875 552.816406 377.238281 553.191406 C 377.679688 553.566406 378.152344 553.890625 378.660156 554.171875 C 379.164062 554.453125 379.695312 554.679688 380.246094 554.855469 C 380.796875 555.03125 381.359375 555.152344 381.933594 555.21875 C 382.507812 555.285156 383.082031 555.292969 383.65625 555.242188 C 384.234375 555.195312 384.800781 555.09375 385.355469 554.933594 C 385.910156 554.773438 386.445312 554.5625 386.960938 554.296875 L 460.015625 516.617188 C 460.53125 516.355469 461.015625 516.042969 461.46875 515.679688 C 461.921875 515.320312 462.332031 514.921875 462.707031 514.476562 C 463.082031 514.035156 463.410156 513.5625 463.691406 513.054688 C 463.972656 512.550781 464.199219 512.019531 464.375 511.46875 C 464.550781 510.917969 464.671875 510.355469 464.738281 509.78125 C 464.804688 509.203125 464.8125 508.628906 464.765625 508.050781 C 464.714844 507.476562 464.613281 506.910156 464.453125 506.351562 C 464.292969 505.796875 464.078125 505.261719 463.8125 504.746094 L 385.761719 353.410156 C 385.601562 353.09375 385.457031 352.773438 385.332031 352.441406 C 385.210938 352.105469 385.105469 351.769531 385.023438 351.425781 C 384.941406 351.078125 384.882812 350.730469 384.839844 350.378906 C 384.800781 350.027344 384.78125 349.675781 384.785156 349.320312 C 384.785156 348.964844 384.808594 348.613281 384.855469 348.261719 C 384.898438 347.910156 384.964844 347.5625 385.050781 347.21875 C 385.136719 346.875 385.246094 346.535156 385.371094 346.207031 C 385.5 345.875 385.648438 345.554688 385.8125 345.242188 C 385.980469 344.929688 386.164062 344.625 386.367188 344.335938 C 386.570312 344.042969 386.789062 343.765625 387.023438 343.503906 C 387.261719 343.238281 387.511719 342.988281 387.777344 342.757812 C 388.046875 342.523438 388.324219 342.304688 388.617188 342.105469 C 388.910156 341.90625 389.214844 341.722656 389.527344 341.558594 C 389.84375 341.394531 390.164062 341.253906 390.496094 341.128906 C 390.828125 341.003906 391.167969 340.898438 391.511719 340.816406 C 391.855469 340.730469 392.203125 340.667969 392.554688 340.628906 L 521.085938 325.472656 L 170.972656 45.820312 L 195.820312 493.238281 L 282.6875 397.289062 C 283.519531 396.367188 284.507812 395.652344 285.644531 395.148438 C 286.785156 394.644531 287.976562 394.394531 289.222656 394.394531 Z M 289.222656 394.394531 " fill-opacity="1" fill-rule="nonzero"/></g><path fill="#ffffff" d="M 167.132812 35.152344 L 537.015625 330.589844 L 392.277344 347.648438 L 467.859375 494.203125 C 468.113281 494.699219 468.34375 495.207031 468.550781 495.726562 C 468.757812 496.246094 468.9375 496.773438 469.09375 497.3125 C 469.246094 497.847656 469.375 498.390625 469.476562 498.941406 C 469.578125 499.492188 469.652344 500.042969 469.699219 500.601562 C 469.746094 501.15625 469.761719 501.714844 469.753906 502.273438 C 469.746094 502.832031 469.710938 503.390625 469.648438 503.945312 C 469.585938 504.5 469.496094 505.050781 469.378906 505.597656 C 469.261719 506.144531 469.117188 506.683594 468.949219 507.214844 C 468.777344 507.746094 468.582031 508.269531 468.363281 508.785156 C 468.140625 509.296875 467.894531 509.796875 467.625 510.285156 C 467.351562 510.773438 467.058594 511.25 466.742188 511.710938 C 466.425781 512.167969 466.085938 512.613281 465.726562 513.039062 C 465.363281 513.464844 464.984375 513.875 464.582031 514.261719 C 464.179688 514.652344 463.761719 515.019531 463.324219 515.371094 C 462.886719 515.71875 462.433594 516.042969 461.964844 516.347656 C 461.496094 516.648438 461.015625 516.929688 460.519531 517.1875 L 425.144531 535.425781 L 389.769531 553.695312 C 389.273438 553.949219 388.761719 554.179688 388.242188 554.386719 C 387.722656 554.59375 387.195312 554.773438 386.65625 554.925781 C 386.121094 555.078125 385.574219 555.207031 385.023438 555.308594 C 384.476562 555.40625 383.921875 555.480469 383.363281 555.527344 C 382.808594 555.570312 382.25 555.589844 381.691406 555.582031 C 381.128906 555.570312 380.574219 555.535156 380.015625 555.472656 C 379.460938 555.40625 378.910156 555.316406 378.363281 555.199219 C 377.816406 555.078125 377.277344 554.933594 376.746094 554.761719 C 376.214844 554.59375 375.691406 554.394531 375.179688 554.171875 C 374.664062 553.949219 374.164062 553.703125 373.675781 553.429688 C 373.1875 553.160156 372.710938 552.863281 372.253906 552.546875 C 371.792969 552.226562 371.351562 551.886719 370.925781 551.523438 C 370.5 551.164062 370.089844 550.78125 369.703125 550.378906 C 369.3125 549.976562 368.945312 549.554688 368.597656 549.117188 C 368.25 548.679688 367.925781 548.226562 367.625 547.753906 C 367.320312 547.285156 367.042969 546.800781 366.789062 546.304688 L 291.210938 399.78125 L 193.417969 507.808594 Z M 167.132812 35.152344 " fill-opacity="1" fill-rule="nonzero"/><g clip-path="url(#36b5d57601)"><path fill="#ff5757" d="M 381.972656 564.105469 C 379.304688 564.101562 376.699219 563.695312 374.15625 562.882812 C 372.554688 562.375 371.019531 561.714844 369.546875 560.902344 C 368.078125 560.089844 366.699219 559.140625 365.417969 558.058594 C 364.136719 556.972656 362.972656 555.769531 361.929688 554.453125 C 360.882812 553.140625 359.980469 551.734375 359.214844 550.238281 L 289.277344 414.625 L 199.710938 513.53125 C 199.144531 514.15625 198.503906 514.683594 197.78125 515.121094 C 197.0625 515.554688 196.292969 515.875 195.476562 516.082031 C 194.660156 516.289062 193.832031 516.371094 192.992188 516.332031 C 192.148438 516.296875 191.332031 516.136719 190.539062 515.855469 C 189.746094 515.574219 189.007812 515.183594 188.332031 514.6875 C 187.652344 514.1875 187.058594 513.601562 186.554688 512.925781 C 186.050781 512.253906 185.652344 511.519531 185.367188 510.730469 C 185.078125 509.9375 184.910156 509.121094 184.863281 508.28125 L 158.601562 35.617188 C 158.554688 34.792969 158.625 33.980469 158.816406 33.179688 C 159.003906 32.375 159.304688 31.617188 159.710938 30.898438 C 160.121094 30.183594 160.625 29.539062 161.21875 28.96875 C 161.816406 28.398438 162.480469 27.925781 163.210938 27.546875 C 163.945312 27.171875 164.71875 26.90625 165.527344 26.75 C 166.339844 26.597656 167.152344 26.5625 167.972656 26.644531 C 168.792969 26.726562 169.585938 26.925781 170.347656 27.238281 C 171.113281 27.550781 171.816406 27.964844 172.457031 28.480469 L 542.34375 323.925781 C 543 324.453125 543.566406 325.058594 544.042969 325.753906 C 544.523438 326.445312 544.886719 327.195312 545.144531 327.996094 C 545.402344 328.796875 545.535156 329.617188 545.546875 330.460938 C 545.5625 331.300781 545.453125 332.125 545.222656 332.9375 C 544.988281 333.746094 544.644531 334.503906 544.191406 335.210938 C 543.734375 335.917969 543.1875 336.542969 542.546875 337.089844 C 541.902344 337.632812 541.199219 338.074219 540.425781 338.410156 C 539.65625 338.746094 538.851562 338.964844 538.015625 339.0625 L 405.496094 354.691406 L 475.429688 490.304688 C 475.8125 491.046875 476.160156 491.8125 476.46875 492.589844 C 476.777344 493.367188 477.046875 494.160156 477.277344 494.964844 C 477.507812 495.773438 477.695312 496.585938 477.847656 497.410156 C 477.996094 498.234375 478.109375 499.0625 478.175781 499.898438 C 478.246094 500.734375 478.273438 501.570312 478.261719 502.40625 C 478.25 503.246094 478.195312 504.082031 478.097656 504.914062 C 478.003906 505.746094 477.871094 506.570312 477.695312 507.390625 C 477.519531 508.207031 477.300781 509.015625 477.046875 509.816406 C 476.792969 510.613281 476.5 511.398438 476.167969 512.164062 C 475.835938 512.933594 475.464844 513.6875 475.058594 514.417969 C 474.65625 515.152344 474.214844 515.863281 473.738281 516.554688 C 473.261719 517.242188 472.753906 517.90625 472.214844 518.546875 C 471.675781 519.1875 471.105469 519.800781 470.503906 520.382812 C 469.902344 520.96875 469.273438 521.519531 468.621094 522.042969 C 467.964844 522.566406 467.285156 523.054688 466.582031 523.511719 C 465.878906 523.964844 465.15625 524.386719 464.414062 524.769531 L 393.675781 561.25 C 390.007812 563.152344 386.105469 564.105469 381.972656 564.105469 Z M 291.210938 391.25 C 291.582031 391.25 291.949219 391.277344 292.316406 391.324219 C 293 391.414062 293.660156 391.585938 294.304688 391.835938 C 294.945312 392.085938 295.546875 392.40625 296.113281 392.804688 C 296.675781 393.199219 297.183594 393.65625 297.636719 394.175781 C 298.089844 394.695312 298.476562 395.261719 298.792969 395.875 L 374.371094 542.417969 C 374.628906 542.917969 374.929688 543.386719 375.28125 543.824219 C 375.628906 544.261719 376.015625 544.660156 376.445312 545.023438 C 376.871094 545.382812 377.332031 545.699219 377.820312 545.972656 C 378.308594 546.242188 378.820312 546.464844 379.355469 546.632812 C 379.886719 546.804688 380.433594 546.921875 380.988281 546.984375 C 381.546875 547.046875 382.101562 547.054688 382.660156 547.011719 C 383.21875 546.964844 383.765625 546.863281 384.304688 546.707031 C 384.84375 546.554688 385.359375 546.347656 385.859375 546.09375 L 456.601562 509.605469 C 457.097656 509.351562 457.566406 509.046875 458.007812 508.699219 C 458.445312 508.351562 458.847656 507.960938 459.207031 507.535156 C 459.570312 507.105469 459.886719 506.648438 460.160156 506.15625 C 460.429688 505.667969 460.652344 505.15625 460.824219 504.621094 C 460.992188 504.085938 461.109375 503.542969 461.175781 502.984375 C 461.238281 502.429688 461.246094 501.871094 461.199219 501.3125 C 461.152344 500.753906 461.050781 500.203125 460.898438 499.664062 C 460.742188 499.125 460.535156 498.609375 460.277344 498.109375 L 384.699219 351.566406 C 384.539062 351.261719 384.402344 350.945312 384.28125 350.625 C 384.164062 350.304688 384.0625 349.976562 383.984375 349.640625 C 383.902344 349.308594 383.84375 348.96875 383.804688 348.628906 C 383.765625 348.289062 383.746094 347.945312 383.75 347.601562 C 383.75 347.261719 383.773438 346.917969 383.816406 346.578125 C 383.863281 346.238281 383.925781 345.902344 384.007812 345.566406 C 384.09375 345.234375 384.195312 344.910156 384.320312 344.589844 C 384.445312 344.269531 384.585938 343.957031 384.746094 343.652344 C 384.90625 343.351562 385.085938 343.058594 385.28125 342.777344 C 385.480469 342.496094 385.691406 342.226562 385.921875 341.972656 C 386.148438 341.714844 386.394531 341.472656 386.652344 341.246094 C 386.910156 341.023438 387.179688 340.8125 387.460938 340.617188 C 387.746094 340.425781 388.039062 340.246094 388.34375 340.089844 C 388.648438 339.929688 388.960938 339.792969 389.28125 339.671875 C 389.605469 339.550781 389.929688 339.449219 390.265625 339.367188 C 390.597656 339.289062 390.933594 339.226562 391.277344 339.1875 L 515.738281 324.511719 L 176.707031 53.710938 L 200.769531 486.964844 L 284.882812 394.054688 C 285.691406 393.160156 286.648438 392.46875 287.75 391.980469 C 288.851562 391.496094 290.007812 391.25 291.210938 391.25 Z M 291.210938 391.25 " fill-opacity="1" fill-rule="nonzero"/></g></svg>